<svg xmlns="http://www.w3.org/2000/svg" width="195.231" height="78.011" viewBox="0 0 195.231 78.011"><path d="M69.867,167.528c-1.787,5.632-9.747,6.986-13.971,2.383-3.628-4.007-3.628-13.646,0-17.653a9.044,9.044,0,0,1,6.931-2.978,7.243,7.243,0,0,1,7.094,4.17l-2.978,1.9c-.812-1.191-1.733-2.978-4.386-2.87-4.44.108-5.253,4.874-5.144,8.61.108,2.383.6,4.765,1.462,5.957,3.736,5.036,7.635.487,8.231-.758Zm70.722-18.3a2.166,2.166,0,1,1-2.166,2.166A2.172,2.172,0,0,1,140.59,149.225Zm26.1,22.96h-3.357V155.452h3.357v2.112a6.172,6.172,0,0,1,4.495-2.653c2.6-.108,4.874,1.679,4.874,6.607v10.614H172.7v-9.964c0-2,.108-4.386-2.653-4.224-2.653.162-3.412,3.3-3.412,5.469v8.773Zm-10.776,0v-2.437a6.35,6.35,0,0,1-3.845,2.491,7.076,7.076,0,0,1-5.036-.812,4.852,4.852,0,0,1-1.625-4.17c.433-4.82,5.307-6.227,10.505-5.415v-1.57c0-3.195-4.982-3.845-7.04-.921l-1.245-2.653a8.122,8.122,0,0,1,5.686-1.841c4.765,0,5.957,2.978,5.957,6.444v6.119a22.639,22.639,0,0,0,.271,4.657h-3.628v.108Zm-.162-8.014a21.288,21.288,0,0,1-3.682.054c-2.166.162-3.628,2.166-2.816,4.007a2.672,2.672,0,0,0,2.924,1.462C155.1,169.315,155.752,166.5,155.752,164.171Zm-40.4,8.014v-2.437a6.35,6.35,0,0,1-3.845,2.491,7.076,7.076,0,0,1-5.036-.812,4.852,4.852,0,0,1-1.625-4.17c.433-4.82,5.307-6.227,10.505-5.415v-1.57c0-3.195-4.982-3.845-7.04-.921L107.07,156.7a8.122,8.122,0,0,1,5.686-1.841c4.765,0,5.957,2.978,5.957,6.444v6.119a22.64,22.64,0,0,0,.271,4.657h-3.628Zm-.162-8.014a21.288,21.288,0,0,1-3.682.054c-2.166.162-3.628,2.166-2.816,4.007a2.672,2.672,0,0,0,2.924,1.462C114.542,169.315,115.192,166.5,115.192,164.171Zm23.664-9.206h3.412v17.22h-3.412Zm-6.986-4.061,3.195-2v23.285h-3.195v-1.9a4.924,4.924,0,0,1-7.365,1.3c-2.166-1.57-3.033-4.82-3.033-7.744,0-4.332,1.841-8.881,6.173-8.773a6.078,6.078,0,0,1,4.17,1.679V150.9Zm-.108,12.834a8.64,8.64,0,0,0-.921-4.17,2.8,2.8,0,0,0-2.545-1.625,2.948,2.948,0,0,0-2.491,1.462,7.772,7.772,0,0,0-.975,4.332c0,2.22.325,3.791.975,4.657a2.941,2.941,0,0,0,2.437,1.3,2.812,2.812,0,0,0,1.841-.7,4.484,4.484,0,0,0,1.245-2.112A9.8,9.8,0,0,0,131.763,163.738Zm-39.043,8.448H89.362V155.452h3.357v2.112a6.172,6.172,0,0,1,4.495-2.653c2.6-.108,4.874,1.679,4.874,6.607v10.614H98.73v-9.964c0-2,.108-4.386-2.653-4.224-2.653.162-3.412,3.3-3.412,5.469l.054,8.773Zm-10.072,0v-2.437a6.35,6.35,0,0,1-3.845,2.491,7.076,7.076,0,0,1-5.036-.812,4.852,4.852,0,0,1-1.625-4.17c.433-4.82,5.307-6.227,10.505-5.415v-1.57c0-3.195-4.982-3.845-7.04-.921L74.362,156.7a8.122,8.122,0,0,1,5.686-1.841c4.765,0,5.957,2.978,5.957,6.444v6.119a22.639,22.639,0,0,0,.271,4.657H82.647Zm-.162-8.014a21.288,21.288,0,0,1-3.682.054c-2.166.162-3.628,2.166-2.816,4.007a2.672,2.672,0,0,0,2.924,1.462C81.835,169.315,82.485,166.5,82.485,164.171Z" transform="translate(-53.175 -94.753)" fill="#b6b6b6" fill-rule="evenodd"/><path d="M286.2,168.365l2.6-2.491a6.365,6.365,0,0,0,5.523,2.762c4.386-.325,4.765-5.469.487-6.552-5.036-1.245-8.718-2.166-8.61-7.527.054-4.332,3.466-6.119,7.69-6.119,3.3,0,6.011,2,6.661,3.953l-2.653,2.329a4.968,4.968,0,0,0-5.09-3.032c-3.249.379-4.061,4.44-.65,5.523a50.45,50.45,0,0,1,5.523,1.625,5.86,5.86,0,0,1,3.9,5.469,6.951,6.951,0,0,1-1.9,5.578C296.162,173.13,289.664,172.751,286.2,168.365Zm52.257,3.087v-2.437a6.35,6.35,0,0,1-3.845,2.491,7.076,7.076,0,0,1-5.036-.812,4.852,4.852,0,0,1-1.625-4.17c.433-4.82,5.307-6.227,10.505-5.415v-1.57c0-3.195-4.982-3.845-7.04-.921l-1.246-2.653a8.122,8.122,0,0,1,5.686-1.841c4.765,0,5.957,2.978,5.957,6.444v6.119a19.4,19.4,0,0,0,.271,4.657h-3.628Zm-.162-8.014a21.29,21.29,0,0,1-3.682.054c-2.166.162-3.628,2.166-2.816,4.007a2.672,2.672,0,0,0,2.924,1.462C337.588,168.582,338.292,165.766,338.292,163.437Zm10.451,8.014h-3.791V154.665h3.791v2.166c1.787-2.762,3.3-2.924,6.5-1.787l-.487,3.52c-4.711-2.112-5.957,1.137-5.957,4.6v8.285Zm-23.069,0h-4.17V150.387l4.17-3.087Zm-14.188.433a7.317,7.317,0,0,1-5.361-2.22c-1.462-1.462-2.22-3.682-2.22-6.607s.758-5.144,2.22-6.607a7.517,7.517,0,0,1,10.668,0c1.462,1.462,2.22,3.682,2.22,6.607s-.758,5.144-2.22,6.607A7.283,7.283,0,0,1,311.487,171.885Zm0-2.978a3.372,3.372,0,0,0,2.924-1.625A7.275,7.275,0,0,0,315.548,163a7.392,7.392,0,0,0-1.137-4.278,3.493,3.493,0,0,0-5.9,0,8.615,8.615,0,0,0,0,8.556A3.461,3.461,0,0,0,311.487,168.907Z" transform="translate(-160.011 -94.02)" fill="#b6b6b6" fill-rule="evenodd"/><path d="M238.658,117.424H242.5c-4.061-13.484,5.307-21.5,17-14.35l3.087-2.22C248.839,89.536,231.4,98.363,238.658,117.424Z" transform="translate(-142.357 -70.426)" fill="#b6b6b6" fill-rule="evenodd"/><path d="M273.778,71.363,269.825,73.8c-.054.054-.108.054-.217,0-.054-.054-.108-.108-.108-.162l.542-12.292a11.322,11.322,0,0,1,.054-1.354,2.124,2.124,0,0,1,.217-.975,2.755,2.755,0,0,1,.7-.866,13.34,13.34,0,0,1,1.462-.921h0l4.007-1.949c.054-.054.108,0,.162,0,.054.054.108.108.108.162l-.7,11.968c-.054.487-.054.975-.108,1.408a3.621,3.621,0,0,1-.271,1.029A5.23,5.23,0,0,1,273.778,71.363Z" transform="translate(-157.278 -51.819)" fill="#b6b6b6" fill-rule="evenodd"/><path d="M204.722,126.266l2.87,3.3c.325.433.325.921-.325.921l-16.625-.054h-1.949a3.252,3.252,0,0,1-2.6-.866,10.93,10.93,0,0,1-1.3-1.462c-.812-1.083-1.57-2.491-2.329-3.628a.1.1,0,0,1,0-.162.281.281,0,0,1,.217-.108l16.354-.108c.65,0,1.354,0,2,.054a10.957,10.957,0,0,1,1.408.217A5.352,5.352,0,0,1,204.722,126.266Z" transform="translate(-117.356 -83.383)" fill="#b6b6b6" fill-rule="evenodd"/><path d="M213.291,101.856l.65,3.9c.162.542-.271.866-.758.6l-13.7-6.986c-3.087-1.841-3.845-2-4.278-5.036l-.108-3.953c-.054-.812.325-1.083,1.083-.65L209.5,97.145c.542.325,1.137.7,1.679,1.083a3.62,3.62,0,0,1,1.083.921A4.806,4.806,0,0,1,213.291,101.856Z" transform="translate(-123.163 -67.529)" fill="#cbcbcb" fill-rule="evenodd"/><path d="M249.714,68.507l-2.383,3.141c-.271.542-.812.379-.921-.162l-3.953-12.834c-.758-3.466-1.191-4.224.758-6.552l2.816-2.816c.542-.6,1.029-.487,1.245.379l3.3,12.888c.108.65.271,1.3.379,1.949a13.328,13.328,0,0,1,.108,1.408A5,5,0,0,1,249.714,68.507Z" transform="translate(-144.586 -48.909)" fill="#cbcbcb" fill-rule="evenodd"/><path d="M225.194,82.435c-.054.6-.542.7-.866.271l-9.856-10.289c-2.274-2.762-2.924-3.195-2.274-6.173l.758-4.007c.217-.758.7-.921,1.245-.217l9.477,10.505c.433.542.866,1.029,1.246,1.57a5.666,5.666,0,0,1,.7,1.245,3.835,3.835,0,0,1,.108,2.058Z" transform="translate(-130.896 -54.714)" fill="#e6e6e6" fill-rule="evenodd"/></svg>