<svg xmlns="http://www.w3.org/2000/svg" width="228.144" height="76.674" viewBox="0 0 228.144 76.674"><g transform="translate(0 0)"><g transform="translate(0 0)"><g transform="translate(0 0)"><g transform="translate(0 0)"><path d="M35.4,71.443a.861.861,0,0,0-.949-.843.951.951,0,0,0-.527.105h-.211a.805.805,0,0,0-.211.527,1,1,0,0,0,.211.738l.211.211h.422c.527-.105.949-.316,1.054-.738v-.316" transform="translate(0.237 2.25)" fill="#d5d5d5"/><path d="M31.487,72.643v-.211a.883.883,0,0,0-.843-.633,1.3,1.3,0,0,0-.843.422v.422a.775.775,0,0,0,.211.633.58.58,0,0,0,.527.316h.211a.957.957,0,0,0,.738-.316.461.461,0,0,0,0-.633" transform="translate(0.036 2.315)" fill="#d5d5d5"/><path d="M44.649,70.192a.957.957,0,0,0,.738-.316.89.89,0,0,0,.211-.738v-.105h0a.8.8,0,0,0-.843-.633,1.2,1.2,0,0,0-.843.316,1.5,1.5,0,0,0-.211.633v.105c.211.527.633.843.949.738" transform="translate(0.79 2.131)" fill="#d5d5d5"/><path d="M35.011,12.816a.89.89,0,0,0-.211.738.861.861,0,0,0,.949.843.957.957,0,0,0,.738-.316,1.007,1.007,0,0,0,.211-1.054,1.107,1.107,0,0,0-.949-.527,1.139,1.139,0,0,0-.738.316" transform="translate(0.307 -0.903)" fill="#d5d5d5"/><path d="M35.311,15.316a.89.89,0,0,0-.211.738.861.861,0,0,0,.949.843.957.957,0,0,0,.738-.316A.89.89,0,0,0,37,15.843.861.861,0,0,0,36.049,15a.957.957,0,0,0-.738.316" transform="translate(0.324 -0.767)" fill="#d5d5d5"/><path d="M35.511,17.522a.8.8,0,0,0-.105.949.939.939,0,0,0,.843.527.957.957,0,0,0,.738-.316.89.89,0,0,0,.211-.738.861.861,0,0,0-.949-.843,1.7,1.7,0,0,0-.738.422" transform="translate(0.334 -0.653)" fill="#d5d5d5"/><path d="M34.511,7.116a.89.89,0,0,0-.211.738.861.861,0,0,0,.949.843.957.957,0,0,0,.738-.316.89.89,0,0,0,.211-.738.861.861,0,0,0-.949-.843.957.957,0,0,0-.738.316" transform="translate(0.28 -1.212)" fill="#d5d5d5"/><path d="M34.811,10.116a.89.89,0,0,0-.211.738.861.861,0,0,0,.949.843.957.957,0,0,0,.738-.316.89.89,0,0,0,.211-.738.861.861,0,0,0-.949-.843.957.957,0,0,0-.738.316" transform="translate(0.296 -1.05)" fill="#d5d5d5"/><path d="M34.849,5.3a.957.957,0,0,0,.738-.316.89.89,0,0,0,.211-.738.861.861,0,0,0-.949-.843.957.957,0,0,0-.738.316.89.89,0,0,0-.211.738,1.121,1.121,0,0,0,.949.843" transform="translate(0.258 -1.397)" fill="#d5d5d5"/><path d="M36.449,19.2a.957.957,0,0,0-.738.316.89.89,0,0,0-.211.738.861.861,0,0,0,.949.843.957.957,0,0,0,.738-.316.89.89,0,0,0,.211-.738.807.807,0,0,0-.949-.843" transform="translate(0.345 -0.54)" fill="#d5d5d5"/><path d="M33.554,14.2a.959.959,0,0,0-.843.422,1,1,0,0,0-.211.738.924.924,0,0,0,.949.738,1.2,1.2,0,0,0,.843-.316,1.025,1.025,0,0,0,.105-.949.989.989,0,0,0-.843-.633" transform="translate(0.182 -0.811)" fill="#d5d5d5"/><path d="M33.209,16.816a1.025,1.025,0,0,0-.105.949.939.939,0,0,0,.843.527,1.2,1.2,0,0,0,.843-.316A1,1,0,0,0,35,17.238a.924.924,0,0,0-.949-.738c-.422,0-.738.105-.843.316" transform="translate(0.211 -0.686)" fill="#d5d5d5"/><path d="M34.349,20.392a1.2,1.2,0,0,0,.843-.316,1.025,1.025,0,0,0,.105-.949.939.939,0,0,0-.843-.527,1.2,1.2,0,0,0-.843.316.889.889,0,0,0,.738,1.476" transform="translate(0.231 -0.572)" fill="#d5d5d5"/><path d="M31.611,9.218a1,1,0,0,0-.211.738.924.924,0,0,0,.949.738,1.2,1.2,0,0,0,.843-.316,1,1,0,0,0,.211-.738.924.924,0,0,0-.949-.738.874.874,0,0,0-.843.316" transform="translate(0.123 -1.1)" fill="#d5d5d5"/><path d="M32.211,12.018a.89.89,0,0,0-.211.738.924.924,0,0,0,.949.738,1.2,1.2,0,0,0,.843-.316,1.025,1.025,0,0,0,.105-.949.939.939,0,0,0-.843-.527.874.874,0,0,0-.843.316" transform="translate(0.155 -0.948)" fill="#d5d5d5"/><path d="M31.011,6.016a1,1,0,0,0-.211.738.9.9,0,0,0,.843.738,1.2,1.2,0,0,0,.843-.316,1,1,0,0,0,.211-.738.9.9,0,0,0-.843-.738,1.038,1.038,0,0,0-.843.316" transform="translate(0.09 -1.272)" fill="#d5d5d5"/><path d="M30.752,13.5a.959.959,0,0,0-.843.422.8.8,0,0,0-.105.843.8.8,0,0,0,.843.633.959.959,0,0,0,.843-.422.8.8,0,0,0,.105-.843.918.918,0,0,0-.843-.633" transform="translate(0.032 -0.849)" fill="#d5d5d5"/><path d="M30.709,16.322a.8.8,0,0,0-.105.843.8.8,0,0,0,.843.633.959.959,0,0,0,.843-.422.8.8,0,0,0,.105-.843.8.8,0,0,0-.843-.633.959.959,0,0,0-.843.422" transform="translate(0.076 -0.718)" fill="#d5d5d5"/><path d="M32.147,19.8a.959.959,0,0,0,.843-.422,1.025,1.025,0,0,0,.105-.949.835.835,0,0,0-.843-.527.959.959,0,0,0-.843.422.8.8,0,0,0-.105.843.676.676,0,0,0,.843.633" transform="translate(0.114 -0.61)" fill="#d5d5d5"/><path d="M28.209,8.422a.8.8,0,0,0-.105.843.8.8,0,0,0,.843.633.959.959,0,0,0,.843-.422,1.025,1.025,0,0,0,.105-.949A.939.939,0,0,0,29.052,8a1.3,1.3,0,0,0-.843.422" transform="translate(-0.06 -1.147)" fill="#d5d5d5"/><path d="M29.109,11.422a.8.8,0,0,0-.105.843.8.8,0,0,0,.843.633.959.959,0,0,0,.843-.422,1.025,1.025,0,0,0,.105-.949A.939.939,0,0,0,29.952,11a.959.959,0,0,0-.843.422" transform="translate(-0.011 -0.984)" fill="#d5d5d5"/><path d="M27.951,6.7a.959.959,0,0,0,.843-.422,1.025,1.025,0,0,0,.105-.949.835.835,0,0,0-.843-.527.959.959,0,0,0-.843.422A.82.82,0,0,0,27,6.065a1.068,1.068,0,0,0,.949.633" transform="translate(-0.118 -1.321)" fill="#d5d5d5"/><path d="M32.647,21.7a.959.959,0,0,0,.843-.422,1.025,1.025,0,0,0,.105-.949.835.835,0,0,0-.843-.527.959.959,0,0,0-.843.422,1.025,1.025,0,0,0-.105.949.939.939,0,0,0,.843.527" transform="translate(0.141 -0.507)" fill="#d5d5d5"/><path d="M28.847,15.6a1.3,1.3,0,0,0-.843.422,1.155,1.155,0,0,0,0,.843.835.835,0,0,0,.843.527,1.3,1.3,0,0,0,.843-.422,1.155,1.155,0,0,0,0-.843.835.835,0,0,0-.843-.527" transform="translate(-0.066 -0.735)" fill="#d5d5d5"/><path d="M28.9,18.222a1.155,1.155,0,0,0,0,.843.835.835,0,0,0,.843.527,1.3,1.3,0,0,0,.843-.422,1.155,1.155,0,0,0,0-.843.835.835,0,0,0-.843-.527.959.959,0,0,0-.843.422" transform="translate(-0.017 -0.615)" fill="#d5d5d5"/><path d="M31.391,21.071a1.155,1.155,0,0,0,0-.843.835.835,0,0,0-.843-.527,1.3,1.3,0,0,0-.843.422,1.155,1.155,0,0,0,0,.843.835.835,0,0,0,.843.527.959.959,0,0,0,.843-.422" transform="translate(0.026 -0.512)" fill="#d5d5d5"/><path d="M25.8,11.123a1.155,1.155,0,0,0,0,.843.835.835,0,0,0,.843.527,1.3,1.3,0,0,0,.843-.422,1.155,1.155,0,0,0,0-.843.835.835,0,0,0-.843-.527.775.775,0,0,0-.843.422" transform="translate(-0.185 -1.002)" fill="#d5d5d5"/><path d="M27.852,13.2a1.3,1.3,0,0,0-.843.422.791.791,0,0,0,0,.949c.105.316.422.422.843.527a1.3,1.3,0,0,0,.843-.422.791.791,0,0,0,0-.949,1.075,1.075,0,0,0-.843-.527" transform="translate(-0.124 -0.865)" fill="#d5d5d5"/><path d="M24.5,8.122a1.155,1.155,0,0,0,0,.843.835.835,0,0,0,.843.527,1.3,1.3,0,0,0,.843-.422,1.155,1.155,0,0,0,0-.843.835.835,0,0,0-.843-.527.959.959,0,0,0-.843.422" transform="translate(-0.256 -1.164)" fill="#d5d5d5"/><path d="M23.852,6.292a1.3,1.3,0,0,0,.843-.422,1.155,1.155,0,0,0,0-.843.835.835,0,0,0-.843-.527,1.3,1.3,0,0,0-.843.422.791.791,0,0,0,0,.949,1.1,1.1,0,0,0,.843.422" transform="translate(-0.341 -1.337)" fill="#d5d5d5"/><path d="M30.942,4.1a1.3,1.3,0,0,0,.843-.422,1.155,1.155,0,0,0,0-.843,1.115,1.115,0,0,0-.738-.633,1.3,1.3,0,0,0-.843.422,1.155,1.155,0,0,0,0,.843,1,1,0,0,0,.738.633" transform="translate(0.054 -1.462)" fill="#d5d5d5"/><path d="M26.052,15.6a.939.939,0,0,0-.843.527.638.638,0,0,0,0,.843.706.706,0,0,0,.738.422.939.939,0,0,0,.843-.527.791.791,0,0,0,0-.949.821.821,0,0,0-.738-.316" transform="translate(-0.222 -0.735)" fill="#d5d5d5"/><path d="M26.308,18.227a.638.638,0,0,0,0,.843.706.706,0,0,0,.738.422,1.028,1.028,0,0,0,.949-.422.791.791,0,0,0,0-.949.706.706,0,0,0-.738-.422,1.457,1.457,0,0,0-.949.527" transform="translate(-0.162 -0.621)" fill="#d5d5d5"/><path d="M29.085,20.971a.791.791,0,0,0,0-.949.706.706,0,0,0-.738-.422.939.939,0,0,0-.843.527,1.463,1.463,0,0,0,0,.949.8.8,0,0,0,.738.422.835.835,0,0,0,.843-.527" transform="translate(-0.093 -0.518)" fill="#d5d5d5"/><path d="M22.308,11.976a.6.6,0,0,0,.738.422.939.939,0,0,0,.843-.527.791.791,0,0,0,0-.949.706.706,0,0,0-.738-.422.939.939,0,0,0-.843.527.791.791,0,0,0,0,.949" transform="translate(-0.379 -1.012)" fill="#d5d5d5"/><path d="M24.652,13.2a.939.939,0,0,0-.843.527.791.791,0,0,0,0,.949.6.6,0,0,0,.738.422.939.939,0,0,0,.843-.527.791.791,0,0,0,0-.949.706.706,0,0,0-.738-.422" transform="translate(-0.298 -0.865)" fill="#d5d5d5"/><path d="M21.346,9.5a.939.939,0,0,0,.843-.527.791.791,0,0,0,0-.949.706.706,0,0,0-.738-.422.939.939,0,0,0-.843.527.638.638,0,0,0,0,.843.793.793,0,0,0,.738.527" transform="translate(-0.472 -1.169)" fill="#d5d5d5"/><path d="M29.246,23.2a.939.939,0,0,0,.843-.527.791.791,0,0,0,0-.949.6.6,0,0,0-.738-.422.939.939,0,0,0-.843.527.791.791,0,0,0,0,.949.706.706,0,0,0,.738.422" transform="translate(-0.043 -0.427)" fill="#d5d5d5"/><path d="M25.395,19.265a.8.8,0,0,0-.105-.843A1.067,1.067,0,0,0,24.552,18a.835.835,0,0,0-.843.527.791.791,0,0,0,0,.949,1.067,1.067,0,0,0,.738.422,2.489,2.489,0,0,0,.949-.633" transform="translate(-0.303 -0.605)" fill="#d5d5d5"/><path d="M25.846,21.792a1.107,1.107,0,0,0,.949-.527,1.155,1.155,0,0,0,0-.843A.8.8,0,0,0,26.057,20a1.107,1.107,0,0,0-.949.527.791.791,0,0,0,0,.949c.105.211.316.316.738.316" transform="translate(-0.227 -0.496)" fill="#d5d5d5"/><path d="M28,22.971a.8.8,0,0,0-.105-.949,1.067,1.067,0,0,0-.738-.422,1.107,1.107,0,0,0-.949.527.8.8,0,0,0,.105.949.888.888,0,0,0,.738.422A1.107,1.107,0,0,0,28,22.971" transform="translate(-0.165 -0.409)" fill="#d5d5d5"/><path d="M21.352,15.4a.835.835,0,0,0,.843-.527.8.8,0,0,0-.105-.949,1.067,1.067,0,0,0-.738-.422,1.107,1.107,0,0,0-.949.527,1.025,1.025,0,0,0,.105.949.959.959,0,0,0,.843.422" transform="translate(-0.478 -0.849)" fill="#d5d5d5"/><path d="M23.052,15.9a.835.835,0,0,0-.843.527.791.791,0,0,0,0,.949,1.067,1.067,0,0,0,.738.422,1.107,1.107,0,0,0,.949-.527,1.025,1.025,0,0,0-.105-.949.914.914,0,0,0-.738-.422" transform="translate(-0.385 -0.718)" fill="#d5d5d5"/><path d="M19.449,12.8a1.107,1.107,0,0,0,.949-.527.8.8,0,0,0-.105-.949,1.067,1.067,0,0,0-.738-.422,1.107,1.107,0,0,0-.949.527.8.8,0,0,0,.105.949.706.706,0,0,0,.738.422" transform="translate(-0.578 -0.99)" fill="#d5d5d5"/><path d="M17.342,10a1.107,1.107,0,0,0,.949-.527.791.791,0,0,0,0-.949,1.067,1.067,0,0,0-.738-.422,1.107,1.107,0,0,0-.949.527,1.155,1.155,0,0,0,0,.843,1.091,1.091,0,0,0,.738.527" transform="translate(-0.685 -1.142)" fill="#d5d5d5"/><path d="M20.9,19.033a.806.806,0,0,0,.211.949.911.911,0,0,0,.633.316,1.013,1.013,0,0,0,.949-.633.687.687,0,0,0-.211-.949.911.911,0,0,0-.633-.316q-.791.158-.949.633" transform="translate(-0.45 -0.583)" fill="#d5d5d5"/><path d="M24.3,21.665a.8.8,0,0,0-.105-.843,1.067,1.067,0,0,0-.738-.422,1.013,1.013,0,0,0-.949.633.8.8,0,0,0,.105.843,1.067,1.067,0,0,0,.738.422,1.535,1.535,0,0,0,.949-.633" transform="translate(-0.364 -0.474)" fill="#d5d5d5"/><path d="M25.7,23.265a.806.806,0,0,0-.211-.949A.911.911,0,0,0,24.852,22a1.013,1.013,0,0,0-.949.633.806.806,0,0,0,.211.949.911.911,0,0,0,.633.316.848.848,0,0,0,.949-.633" transform="translate(-0.288 -0.387)" fill="#d5d5d5"/><path d="M17.952,14.2a1.013,1.013,0,0,0-.949.633.806.806,0,0,0,.211.949.911.911,0,0,0,.633.316,1.013,1.013,0,0,0,.949-.633.806.806,0,0,0-.211-.949.911.911,0,0,0-.633-.316" transform="translate(-0.662 -0.811)" fill="#d5d5d5"/><path d="M19.952,16.5a1.013,1.013,0,0,0-.949.633.8.8,0,0,0,.105.843,1.067,1.067,0,0,0,.738.422,1.013,1.013,0,0,0,.949-.633.8.8,0,0,0-.105-.843.706.706,0,0,0-.738-.422" transform="translate(-0.554 -0.686)" fill="#d5d5d5"/><path d="M15.547,13.6a1.013,1.013,0,0,0,.949-.633.8.8,0,0,0-.105-.843,1.067,1.067,0,0,0-.738-.422,1.013,1.013,0,0,0-.949.633.806.806,0,0,0,.211.949c.211.105.422.316.633.316" transform="translate(-0.787 -0.946)" fill="#d5d5d5"/><path d="M26.147,25.4a1.013,1.013,0,0,0,.949-.633.8.8,0,0,0-.105-.843,1.067,1.067,0,0,0-.738-.422,1.013,1.013,0,0,0-.949.633.8.8,0,0,0,.105.843,1.067,1.067,0,0,0,.738.422" transform="translate(-0.212 -0.306)" fill="#d5d5d5"/><path d="M19.9,21.833a1.011,1.011,0,0,0,.211.949,1.5,1.5,0,0,0,.633.211,1.212,1.212,0,0,0,.949-.633,1.011,1.011,0,0,0-.211-.949.775.775,0,0,0-.633-.211,1.013,1.013,0,0,0-.949.633" transform="translate(-0.504 -0.431)" fill="#d5d5d5"/><path d="M22.551,22.8a1.212,1.212,0,0,0-.949.633,1.011,1.011,0,0,0,.211.949,1.5,1.5,0,0,0,.633.211,1.212,1.212,0,0,0,.949-.633,1.011,1.011,0,0,0-.211-.949.891.891,0,0,0-.633-.211" transform="translate(-0.411 -0.344)" fill="#d5d5d5"/><path d="M24.994,25.46a1.011,1.011,0,0,0-.211-.949c-.105-.211-.422-.211-.633-.211a1.212,1.212,0,0,0-.949.633,1.011,1.011,0,0,0,.211.949,1.5,1.5,0,0,0,.633.211,1.212,1.212,0,0,0,.949-.633" transform="translate(-0.324 -0.263)" fill="#d5d5d5"/><path d="M15.9,18.128a.8.8,0,0,0,.105.843,1.067,1.067,0,0,0,.738.422,1.212,1.212,0,0,0,.949-.633,1.011,1.011,0,0,0-.211-.949,1.5,1.5,0,0,0-.633-.211.849.849,0,0,0-.949.527" transform="translate(-0.722 -0.627)" fill="#d5d5d5"/><path d="M18,20.033a.806.806,0,0,0,.211.949.775.775,0,0,0,.633.211,1.212,1.212,0,0,0,.949-.633,1.011,1.011,0,0,0-.211-.949.775.775,0,0,0-.633-.211,1.212,1.212,0,0,0-.949.633" transform="translate(-0.608 -0.529)" fill="#d5d5d5"/><path d="M14.346,17.192a1.212,1.212,0,0,0,.949-.633,1.011,1.011,0,0,0-.211-.949.775.775,0,0,0-.633-.211,1.212,1.212,0,0,0-.949.633,1.011,1.011,0,0,0,.211.949,1.5,1.5,0,0,0,.633.211" transform="translate(-0.851 -0.746)" fill="#d5d5d5"/><path d="M11.746,14.792a1.212,1.212,0,0,0,.949-.633.806.806,0,0,0-.211-.949A1.5,1.5,0,0,0,11.851,13a1.212,1.212,0,0,0-.949.633,1.011,1.011,0,0,0,.211.949.775.775,0,0,0,.633.211" transform="translate(-0.992 -0.876)" fill="#d5d5d5"/><path d="M17.618,23.992a.805.805,0,0,0,.527.211,1.126,1.126,0,0,0,.949-.738,1.19,1.19,0,0,0-.105-.843,1.067,1.067,0,0,0-.738-.422,1.013,1.013,0,0,0-.949.738.954.954,0,0,0,.316,1.054" transform="translate(-0.645 -0.377)" fill="#d5d5d5"/><path d="M21.094,24.965a.954.954,0,0,0-.316-1.054.805.805,0,0,0-.527-.211,1.126,1.126,0,0,0-.949.738,1.011,1.011,0,0,0,.316,1.054c.211.105.316.211.527.211.527-.105.843-.316.949-.738" transform="translate(-0.536 -0.295)" fill="#d5d5d5"/><path d="M22.578,25.211c-.211-.105-.316-.211-.527-.211a1.013,1.013,0,0,0-.949.738.939.939,0,0,0,.843,1.16,1.126,1.126,0,0,0,.949-.738.954.954,0,0,0-.316-.949" transform="translate(-0.438 -0.225)" fill="#d5d5d5"/><path d="M12.913,20.587c.211.105.316.211.527.211a1.019,1.019,0,0,0,.738-1.687.805.805,0,0,0-.527-.211,1.019,1.019,0,0,0-.738,1.687" transform="translate(-0.894 -0.556)" fill="#d5d5d5"/><path d="M15.1,21.333a.954.954,0,0,0,.316,1.054.805.805,0,0,0,.527.211,1.013,1.013,0,0,0,.949-.738.939.939,0,0,0-.843-1.16.922.922,0,0,0-.949.633" transform="translate(-0.764 -0.458)" fill="#d5d5d5"/><path d="M10.218,18.592a.805.805,0,0,0,.527.211,1.126,1.126,0,0,0,.949-.738,1.011,1.011,0,0,0-.316-1.054c-.211-.105-.316-.211-.527-.211a1.013,1.013,0,0,0-.949.738.954.954,0,0,0,.316,1.054" transform="translate(-1.046 -0.67)" fill="#d5d5d5"/><path d="M23.018,27.987a.805.805,0,0,0,.527.211,1.013,1.013,0,0,0,.949-.738.939.939,0,0,0-.843-1.16,1.126,1.126,0,0,0-.949.738.85.85,0,0,0,.316.949" transform="translate(-0.351 -0.154)" fill="#d5d5d5"/><path d="M17.427,26.792a.79.79,0,0,0,.527.105,1.013,1.013,0,0,0,.949-.738,1,1,0,0,0-.422-1.054c-.211,0-.422-.105-.633-.105a1.013,1.013,0,0,0-.949.738,1.071,1.071,0,0,0,.527,1.054" transform="translate(-0.664 -0.225)" fill="#d5d5d5"/><path d="M20.377,26.405a.79.79,0,0,0-.527-.105,1.013,1.013,0,0,0-.949.738,1,1,0,0,0,.422,1.054.79.79,0,0,0,.527.105,1.013,1.013,0,0,0,.949-.738.77.77,0,0,0-.422-1.054" transform="translate(-0.557 -0.154)" fill="#d5d5d5"/><path d="M22.277,27.505a.79.79,0,0,0-.527-.105,1.013,1.013,0,0,0-.949.738,1,1,0,0,0,.422,1.054.79.79,0,0,0,.527.105,1.013,1.013,0,0,0,.949-.738,1,1,0,0,0-.422-1.054" transform="translate(-0.454 -0.094)" fill="#d5d5d5"/><path d="M13.677,22.505a.79.79,0,0,0-.527-.105,1.013,1.013,0,0,0-.949.738,1,1,0,0,0,.422,1.054.79.79,0,0,0,.527.105,1.013,1.013,0,0,0,.949-.738.934.934,0,0,0-.422-1.054" transform="translate(-0.921 -0.366)" fill="#d5d5d5"/><path d="M14.7,24.538a1,1,0,0,0,.422,1.054.634.634,0,0,0,.422.105,1.013,1.013,0,0,0,.949-.738.863.863,0,0,0-.422-1.054.79.79,0,0,0-.527-.105,1,1,0,0,0-.843.738" transform="translate(-0.785 -0.29)" fill="#d5d5d5"/><path d="M9.929,22.392a.634.634,0,0,0,.422.105,1.013,1.013,0,0,0,.949-.738,1,1,0,0,0-.422-1.054.79.79,0,0,0-.527-.105,1.013,1.013,0,0,0-.949.738.821.821,0,0,0,.527,1.054" transform="translate(-1.073 -0.463)" fill="#d5d5d5"/><path d="M6.923,20.792a.79.79,0,0,0,.527.105A1.013,1.013,0,0,0,8.4,20.16a1,1,0,0,0-.422-1.054c-.211,0-.316-.105-.527-.105a1.013,1.013,0,0,0-.949.738,1,1,0,0,0,.422,1.054" transform="translate(-1.23 -0.55)" fill="#d5d5d5"/><path d="M15.128,28.5a.634.634,0,0,0,.422.105,1,1,0,0,0,.949-.843.924.924,0,0,0-.527-1.054.634.634,0,0,0-.422-.105,1,1,0,0,0-.949.843.988.988,0,0,0,.527,1.054" transform="translate(-0.79 -0.138)" fill="#d5d5d5"/><path d="M17.433,29.492a.634.634,0,0,0,.422.105.832.832,0,0,0,.843-.843.652.652,0,0,0-.211-.738.957.957,0,0,0-.738-.316,1,1,0,0,0-.949.843.922.922,0,0,0,.633.949" transform="translate(-0.67 -0.078)" fill="#d5d5d5"/><path d="M19.85,30.5a1.013,1.013,0,0,0,.949-.738.924.924,0,0,0-.527-1.054.634.634,0,0,0-.422-.105,1,1,0,0,0-.949.843.924.924,0,0,0,.527,1.054h.422" transform="translate(-0.557 -0.029)" fill="#d5d5d5"/><path d="M9.926,26.092a.634.634,0,0,0,.422.105,1,1,0,0,0,.949-.843.924.924,0,0,0-.527-1.054h-.422a.815.815,0,0,0-.843.738.713.713,0,0,0,.422,1.054" transform="translate(-1.07 -0.263)" fill="#d5d5d5"/><path d="M12.628,27.4c.105.105.211.105.422.105A1,1,0,0,0,14,26.66a.924.924,0,0,0-.527-1.054.634.634,0,0,0-.422-.105,1,1,0,0,0-.949.843,1.071,1.071,0,0,0,.527,1.054" transform="translate(-0.926 -0.197)" fill="#d5d5d5"/><path d="M6.829,24.7a.634.634,0,0,0,.422.105A1,1,0,0,0,8.2,23.96a.924.924,0,0,0-.527-1.054A.634.634,0,0,0,7.25,22.8a1,1,0,0,0-.949.843A.821.821,0,0,0,6.829,24.7" transform="translate(-1.241 -0.344)" fill="#d5d5d5"/><path d="M21.329,31.3a.634.634,0,0,0,.422.105,1,1,0,0,0,.949-.843.924.924,0,0,0-.527-1.054.634.634,0,0,0-.422-.105,1,1,0,0,0-.949.843.924.924,0,0,0,.527,1.054" transform="translate(-0.454 0.014)" fill="#d5d5d5"/><path d="M16.161,29.5h-.316a.832.832,0,0,0-.843.843,1,1,0,0,0,.633,1.054h.316a1.121,1.121,0,0,0,.949-.843,1.524,1.524,0,0,0-.738-1.054" transform="translate(-0.768 0.02)" fill="#d5d5d5"/><path d="M18.144,32.2a1.121,1.121,0,0,0,.949-.843,1,1,0,0,0-.633-1.054h-.316a.832.832,0,0,0-.843.843.935.935,0,0,0,.633,1.054h.211" transform="translate(-0.644 0.063)" fill="#d5d5d5"/><path d="M20.361,31h-.316a.832.832,0,0,0-.843.843,1,1,0,0,0,.633,1.054h.316a.907.907,0,0,0,.843-.843A.974.974,0,0,0,20.361,31" transform="translate(-0.54 0.101)" fill="#d5d5d5"/><path d="M10.65,29.7a.832.832,0,0,0,.843-.843,1,1,0,0,0-.633-1.054h-.316a.907.907,0,0,0-.843.843,1,1,0,0,0,.633,1.054h.316" transform="translate(-1.056 -0.073)" fill="#d5d5d5"/><path d="M13.661,28.7h-.316a.832.832,0,0,0-.843.843,1,1,0,0,0,.633,1.054h.316a.907.907,0,0,0,.843-.843.877.877,0,0,0-.633-1.054" transform="translate(-0.904 -0.024)" fill="#d5d5d5"/><path d="M7.866,26.8H7.55a1.121,1.121,0,0,0-.949.843A1,1,0,0,0,7.234,28.7H7.55a1.121,1.121,0,0,0,.949-.843A.877.877,0,0,0,7.866,26.8" transform="translate(-1.224 -0.127)" fill="#d5d5d5"/><path d="M3.938,27.5h.316a.907.907,0,0,0,.843-.843A1,1,0,0,0,4.465,25.6H4.149a1,1,0,0,0-.949.843A1.1,1.1,0,0,0,3.938,27.5" transform="translate(-1.408 -0.192)" fill="#d5d5d5"/><path d="M14.155,31.7h-.211a.832.832,0,0,0-.843.843.918.918,0,0,0,.738,1.054h.211A1.014,1.014,0,0,0,15,32.754a1.281,1.281,0,0,0-.843-1.054" transform="translate(-0.871 0.139)" fill="#d5d5d5"/><path d="M16.244,32.2a.832.832,0,0,0-.843.843.869.869,0,0,0,.738,1.054h.211a1.014,1.014,0,0,0,.949-.843.739.739,0,0,0-.738-.949l-.316-.105" transform="translate(-0.747 0.166)" fill="#d5d5d5"/><path d="M19.4,33.654a.918.918,0,0,0-.738-1.054H18.45a1.014,1.014,0,0,0-.949.843.777.777,0,0,0,.738.949h.211a.739.739,0,0,0,.949-.738" transform="translate(-0.633 0.188)" fill="#d5d5d5"/><path d="M8.144,30.5a.832.832,0,0,0-.843.843A.918.918,0,0,0,8.039,32.4H8.25a1.014,1.014,0,0,0,.949-.843.739.739,0,0,0-.738-.949H8.144" transform="translate(-1.186 0.074)" fill="#d5d5d5"/><path d="M11.043,32.9h.211a.832.832,0,0,0,.843-.843A.869.869,0,0,0,11.36,31h-.211a1.014,1.014,0,0,0-.949.843,1.281,1.281,0,0,0,.843,1.054" transform="translate(-1.028 0.101)" fill="#d5d5d5"/><path d="M4.85,29.8a1.014,1.014,0,0,0-.949.843.777.777,0,0,0,.738.949H4.85a.832.832,0,0,0,.843-.843.777.777,0,0,0-.738-.949H4.85" transform="translate(-1.371 0.036)" fill="#d5d5d5"/><path d="M20.444,34.992a1.014,1.014,0,0,0,.949-.843.777.777,0,0,0-.738-.949h-.211a.832.832,0,0,0-.843.843.918.918,0,0,0,.738,1.054h.105" transform="translate(-0.519 0.22)" fill="#d5d5d5"/><path d="M13.8,35.249c0,.211,0,.527.211.633a.751.751,0,0,0,.633.316h.105a.945.945,0,0,0,.949-.949c0-.211,0-.527-.211-.633s-.422-.316-.633-.316a1.954,1.954,0,0,0-.738.211,1.139,1.139,0,0,0-.316.738" transform="translate(-0.832 0.28)" fill="#d5d5d5"/><path d="M18,35.649a.949.949,0,1,0-1.9,0c0,.211,0,.527.211.633s.422.316.633.316h.105A.945.945,0,0,0,18,35.649" transform="translate(-0.708 0.302)" fill="#d5d5d5"/><path d="M19.254,34.9a1,1,0,0,0-.738.211.911.911,0,0,0-.316.633c0,.211,0,.527.211.633a.751.751,0,0,0,.633.316h.105a.945.945,0,0,0,.949-.949c0-.211,0-.527-.211-.633a1.13,1.13,0,0,0-.633-.211" transform="translate(-0.594 0.313)" fill="#d5d5d5"/><path d="M8.4,34.643c0,.211,0,.527.211.633a.751.751,0,0,0,.633.316h.105a.929.929,0,0,0,.949-.843.861.861,0,0,0-.843-.949,1,1,0,0,0-.738.211.751.751,0,0,0-.316.633" transform="translate(-1.126 0.253)" fill="#d5d5d5"/><path d="M11.2,34.949a.861.861,0,0,0,.843.949h.105a.945.945,0,0,0,.949-.949c0-.211,0-.527-.211-.633A.751.751,0,0,0,12.254,34h-.105a1.113,1.113,0,0,0-.949.949" transform="translate(-0.974 0.264)" fill="#d5d5d5"/><path d="M5.1,34.349a.775.775,0,0,0,.211.633.911.911,0,0,0,.633.316h.105a.949.949,0,0,0,0-1.9,1.019,1.019,0,0,0-.949.949" transform="translate(-1.305 0.231)" fill="#d5d5d5"/><path d="M2.543,34.9h.105a.945.945,0,0,0,.949-.949c0-.211,0-.527-.211-.633S2.965,33,2.754,33a1,1,0,0,0-.738.211.911.911,0,0,0-.316.633c0,.211,0,.527.211.633s.422.422.633.422" transform="translate(-1.489 0.21)" fill="#d5d5d5"/><path d="M13.254,38.7a.751.751,0,0,0,.633-.316c.211-.211.316-.422.211-.633a.751.751,0,0,0-.316-.633.911.911,0,0,0-.633-.316.945.945,0,0,0-.949.949,1.121,1.121,0,0,0,1.054.949Z" transform="translate(-0.919 0.416)" fill="#d5d5d5"/><path d="M15.746,36.8a.751.751,0,0,0-.633.316c-.211.211-.316.422-.211.633a1.13,1.13,0,0,0,.211.633.911.911,0,0,0,.633.316.949.949,0,1,0,0-1.9" transform="translate(-0.775 0.416)" fill="#d5d5d5"/><path d="M18.9,37.749a.949.949,0,1,0-.949.949.751.751,0,0,0,.633-.316c.316-.105.316-.422.316-.633" transform="translate(-0.659 0.416)" fill="#d5d5d5"/><path d="M7.443,36.8a.955.955,0,0,0,0,1.9.923.923,0,0,0,.843-.949.861.861,0,0,0-.843-.949" transform="translate(-1.223 0.416)" fill="#d5d5d5"/><path d="M9.6,37.747a1.13,1.13,0,0,0,.211.633.911.911,0,0,0,.633.316,1.107,1.107,0,0,0,.949-.527.839.839,0,0,0-.211-1.054,1.007,1.007,0,0,0-1.054-.211.835.835,0,0,0-.527.843" transform="translate(-1.06 0.418)" fill="#d5d5d5"/><path d="M4.046,36.7a.751.751,0,0,0-.633.316c-.211.211-.316.422-.211.633a1.13,1.13,0,0,0,.211.633,1.2,1.2,0,0,0,.633.316.751.751,0,0,0,.633-.316c.211-.211.316-.422.211-.633a1.13,1.13,0,0,0-.211-.633,1.2,1.2,0,0,0-.633-.316" transform="translate(-1.41 0.41)" fill="#d5d5d5"/><path d="M21,37.749a.949.949,0,1,0-.949.949A1.118,1.118,0,0,0,21,37.749" transform="translate(-0.545 0.416)" fill="#d5d5d5"/><path d="M14.649,41.092h.105a.911.911,0,0,0,.633-.316.775.775,0,0,0,.211-.633.751.751,0,0,0-.316-.633.89.89,0,0,0-.738-.211.911.911,0,0,0-.633.316.775.775,0,0,0-.211.633,1.014,1.014,0,0,0,.949.843" transform="translate(-0.838 0.551)" fill="#d5d5d5"/><path d="M18,39.943a.751.751,0,0,0-.316-.633.89.89,0,0,0-.738-.211.911.911,0,0,0-.633.316.775.775,0,0,0-.211.633.945.945,0,0,0,.949.949h.211a.911.911,0,0,0,.633-.316A.649.649,0,0,0,18,39.943" transform="translate(-0.708 0.541)" fill="#d5d5d5"/><path d="M19.043,38.8a.955.955,0,0,0,0,1.9h.105a.911.911,0,0,0,.633-.316,1.5,1.5,0,0,0,.211-.633.751.751,0,0,0-.316-.633.631.631,0,0,0-.633-.316" transform="translate(-0.594 0.524)" fill="#d5d5d5"/><path d="M8.3,40.749c0,.527.422.843.949.949h.105a.911.911,0,0,0,.633-.316,1.5,1.5,0,0,0,.211-.633.945.945,0,0,0-.949-.949.885.885,0,0,0-.949.949" transform="translate(-1.131 0.579)" fill="#d5d5d5"/><path d="M11.2,40.543a.945.945,0,0,0,.949.949h.105a.911.911,0,0,0,.633-.316,1.5,1.5,0,0,0,.211-.633.751.751,0,0,0-.316-.633,1.524,1.524,0,0,0-.738-.211.911.911,0,0,0-.633.316c-.211,0-.211.211-.211.527" transform="translate(-0.974 0.573)" fill="#d5d5d5"/><path d="M6.892,40.949A.945.945,0,0,0,5.943,40h0a1,1,0,0,0-.843.949,1.014,1.014,0,0,0,.843.949h.105a.911.911,0,0,0,.633-.316c.211-.211.316-.316.211-.633" transform="translate(-1.305 0.589)" fill="#d5d5d5"/><path d="M2.343,40.5a.955.955,0,0,0,0,1.9h.105a.869.869,0,0,0,.738-1.054c-.105-.527-.422-.843-.843-.843" transform="translate(-1.5 0.617)" fill="#d5d5d5"/><path d="M14.693,42.743a.832.832,0,0,0-.843-.843h-.211c-.422.105-.843.527-.738.949a.861.861,0,0,0,.949.843h.211a.727.727,0,0,0,.633-.949" transform="translate(-0.882 0.693)" fill="#d5d5d5"/><path d="M17.089,42.243a.861.861,0,0,0-.949-.843h-.105a.9.9,0,0,0-.527.316.7.7,0,0,0-.105.633.861.861,0,0,0,.949.843h.211a.9.9,0,0,0,.527-.316.663.663,0,0,0,0-.633" transform="translate(-0.748 0.665)" fill="#d5d5d5"/><path d="M18.45,40.9h-.211a.821.821,0,0,0-.738.949.832.832,0,0,0,.843.843h.211a1.013,1.013,0,0,0,.738-.949c0-.422-.422-.738-.843-.843" transform="translate(-0.633 0.638)" fill="#d5d5d5"/><path d="M8.15,43.1H7.939a.821.821,0,0,0-.738.949.861.861,0,0,0,.949.843h.211a.9.9,0,0,0,.527-.316.7.7,0,0,0,.105-.633A.832.832,0,0,0,8.15,43.1" transform="translate(-1.192 0.758)" fill="#d5d5d5"/><path d="M11.993,43.343a.832.832,0,0,0-.843-.843h-.211a.821.821,0,0,0-.738.949.861.861,0,0,0,.949.843h.211a.821.821,0,0,0,.633-.949" transform="translate(-1.029 0.725)" fill="#d5d5d5"/><path d="M4.75,43.8H4.539a.821.821,0,0,0-.738.949.861.861,0,0,0,.949.843h.211a.9.9,0,0,0,.527-.316.7.7,0,0,0,.105-.633c.105-.527-.316-.843-.843-.843" transform="translate(-1.376 0.796)" fill="#d5d5d5"/><path d="M21.293,41.443a.832.832,0,0,0-.843-.843h-.211c-.422.105-.843.527-.738.949a.861.861,0,0,0,.949.843h.211a.821.821,0,0,0,.633-.949" transform="translate(-0.524 0.622)" fill="#d5d5d5"/><path d="M15.644,45.9h.316a.877.877,0,0,0,.633-1.054A.907.907,0,0,0,15.75,44h-.316a.877.877,0,0,0-.633,1.054.907.907,0,0,0,.843.843" transform="translate(-0.779 0.807)" fill="#d5d5d5"/><path d="M17,44.354a1.014,1.014,0,0,0,.949.843h.316a.877.877,0,0,0,.633-1.054,1.014,1.014,0,0,0-.949-.843h-.316A1,1,0,0,0,17,44.354" transform="translate(-0.66 0.769)" fill="#d5d5d5"/><path d="M20.9,43.443a1.014,1.014,0,0,0-.949-.843h-.316A.877.877,0,0,0,19,43.654a.712.712,0,0,0,.422.633,1.12,1.12,0,0,0,.843.105.922.922,0,0,0,.633-.949" transform="translate(-0.551 0.731)" fill="#d5d5d5"/><path d="M10.444,47.5h.316a.877.877,0,0,0,.633-1.054.907.907,0,0,0-.843-.843h-.316A.877.877,0,0,0,9.6,46.654a.776.776,0,0,0,.843.843" transform="translate(-1.061 0.893)" fill="#d5d5d5"/><path d="M14.2,45.643a.929.929,0,0,0-.949-.843h-.316a.877.877,0,0,0-.633,1.054,1.014,1.014,0,0,0,.949.843h.316a1,1,0,0,0,.633-1.054" transform="translate(-0.915 0.85)" fill="#d5d5d5"/><path d="M7.35,46.6H7.034A.877.877,0,0,0,6.4,47.654a1.014,1.014,0,0,0,.949.843h.316A.877.877,0,0,0,8.3,47.443.923.923,0,0,0,7.35,46.6" transform="translate(-1.235 0.948)" fill="#d5d5d5"/><path d="M4.05,47.7H3.734A.877.877,0,0,0,3.1,48.754a1.014,1.014,0,0,0,.949.843h.316A.877.877,0,0,0,5,48.543.923.923,0,0,0,4.05,47.7" transform="translate(-1.414 1.007)" fill="#d5d5d5"/><path d="M15.345,48.7a.634.634,0,0,0,.422-.105.87.87,0,0,0,.527-1.054,1.144,1.144,0,0,0-.843-.843.634.634,0,0,0-.422.105A.924.924,0,0,0,14.5,47.86a.776.776,0,0,0,.843.843" transform="translate(-0.796 0.953)" fill="#d5d5d5"/><path d="M17.55,47.7h.422a.924.924,0,0,0,.527-1.054,1.134,1.134,0,0,0-.949-.843h-.422a.924.924,0,0,0-.527,1.054c.211.527.527.843.949.843" transform="translate(-0.682 0.904)" fill="#d5d5d5"/><path d="M19.65,46.8a.957.957,0,0,0,.738-.316,1,1,0,0,0,.211-.738,1.134,1.134,0,0,0-.949-.843.634.634,0,0,0-.422.105A.924.924,0,0,0,18.7,46.06a1.013,1.013,0,0,0,.949.738" transform="translate(-0.568 0.855)" fill="#d5d5d5"/><path d="M9.947,51a.634.634,0,0,0,.422-.105.924.924,0,0,0,.527-1.054A1.134,1.134,0,0,0,9.947,49a.957.957,0,0,0-.738.316.991.991,0,0,0-.105.949A.9.9,0,0,0,9.947,51" transform="translate(-1.091 1.078)" fill="#d5d5d5"/><path d="M12.749,49.8h.422a.924.924,0,0,0,.527-1.054,1.134,1.134,0,0,0-.949-.843.957.957,0,0,0-.738.316,1,1,0,0,0-.211.738c.211.527.527.843.949.843" transform="translate(-0.941 1.018)" fill="#d5d5d5"/><path d="M6.85,52.4a.634.634,0,0,0,.422-.105A.924.924,0,0,0,7.8,51.243,1.134,1.134,0,0,0,6.85,50.4a.634.634,0,0,0-.422.105A.924.924,0,0,0,5.9,51.56a1.287,1.287,0,0,0,.949.843" transform="translate(-1.263 1.154)" fill="#d5d5d5"/><path d="M22.394,44.843A1.144,1.144,0,0,0,21.55,44a.634.634,0,0,0-.422.105A.87.87,0,0,0,20.6,45.16,1.134,1.134,0,0,0,21.55,46h.422c.316-.105.527-.633.422-1.16" transform="translate(-0.465 0.807)" fill="#d5d5d5"/><path d="M17.651,50.4c.211,0,.316,0,.422-.105a.863.863,0,0,0,.422-1.054,1.013,1.013,0,0,0-.949-.738c-.211,0-.316,0-.422.105A.863.863,0,0,0,16.7,49.66a1.2,1.2,0,0,0,.949.738" transform="translate(-0.677 1.051)" fill="#d5d5d5"/><path d="M19.645,47.3c-.211,0-.316,0-.422.105A.863.863,0,0,0,18.8,48.46a.924.924,0,0,0,.949.738c.211,0,.316-.105.422-.105a.863.863,0,0,0,.422-1.054.924.924,0,0,0-.949-.738" transform="translate(-0.563 0.986)" fill="#d5d5d5"/><path d="M21.545,46.3c-.211,0-.316,0-.422.105A.863.863,0,0,0,20.7,47.46a.924.924,0,0,0,.949.738c.211,0,.316,0,.422-.105a.863.863,0,0,0,.422-1.054,1.126,1.126,0,0,0-.949-.738" transform="translate(-0.46 0.931)" fill="#d5d5d5"/><path d="M12.851,53.1c.211,0,.316-.105.422-.105a.863.863,0,0,0,.422-1.054.924.924,0,0,0-.949-.738c-.211,0-.316,0-.422.105A.863.863,0,0,0,11.9,52.36a1.4,1.4,0,0,0,.949.738" transform="translate(-0.938 1.197)" fill="#d5d5d5"/><path d="M15.351,51.6c.211,0,.316,0,.422-.105a.863.863,0,0,0,.422-1.054.924.924,0,0,0-.949-.738c-.211,0-.316,0-.422.105A.863.863,0,0,0,14.4,50.86a1.013,1.013,0,0,0,.949.738" transform="translate(-0.802 1.116)" fill="#d5d5d5"/><path d="M10.477,54.492a.863.863,0,0,0,.422-1.054A1.013,1.013,0,0,0,9.95,52.7a.95.95,0,0,0-.527.105A1,1,0,0,0,9,53.86a1.013,1.013,0,0,0,.949.738.79.79,0,0,0,.527-.105" transform="translate(-1.094 1.279)" fill="#d5d5d5"/><path d="M6.945,54.5c-.211,0-.316,0-.422.105A.863.863,0,0,0,6.1,55.66a1.013,1.013,0,0,0,.949.738c.211,0,.316,0,.422-.105a.863.863,0,0,0,.422-1.054,1.013,1.013,0,0,0-.949-.738" transform="translate(-1.252 1.376)" fill="#d5d5d5"/><path d="M17.845,53.2a1.067,1.067,0,0,0,.738-.422,1.136,1.136,0,0,0,.211-.843,1.013,1.013,0,0,0-.949-.738.805.805,0,0,0-.527.211A.954.954,0,0,0,17,52.465a.9.9,0,0,0,.843.738" transform="translate(-0.661 1.197)" fill="#d5d5d5"/><path d="M19.318,50.011A.954.954,0,0,0,19,51.065a1.013,1.013,0,0,0,.949.738.805.805,0,0,0,.527-.211.954.954,0,0,0,.316-1.054,1.013,1.013,0,0,0-.949-.738c-.211,0-.316.105-.527.211" transform="translate(-0.552 1.121)" fill="#d5d5d5"/><path d="M21.748,48.5a.805.805,0,0,0-.527.211.82.82,0,0,0-.316,1.054,1.167,1.167,0,0,0,.949.738.805.805,0,0,0,.527-.211.82.82,0,0,0,.316-1.054,1.341,1.341,0,0,0-.949-.738" transform="translate(-0.451 1.051)" fill="#d5d5d5"/><path d="M13.68,56.392A.82.82,0,0,0,14,55.338a1.167,1.167,0,0,0-.949-.738,1.067,1.067,0,0,0-.738.422.8.8,0,0,0-.105.843,1.167,1.167,0,0,0,.949.738.805.805,0,0,0,.527-.211" transform="translate(-0.923 1.382)" fill="#d5d5d5"/><path d="M15.651,54.8a.805.805,0,0,0,.527-.211.82.82,0,0,0,.316-1.054,1.013,1.013,0,0,0-.949-.738.805.805,0,0,0-.527.211.85.85,0,0,0-.316.949c.211.527.527.843.949.843" transform="translate(-0.786 1.284)" fill="#d5d5d5"/><path d="M11.294,57.338a1.167,1.167,0,0,0-.949-.738.805.805,0,0,0-.527.211A.954.954,0,0,0,9.5,57.865a1.167,1.167,0,0,0,.949.738.805.805,0,0,0,.527-.211.954.954,0,0,0,.316-1.054" transform="translate(-1.068 1.49)" fill="#d5d5d5"/><path d="M23.348,47.4a.805.805,0,0,0-.527.211.724.724,0,0,0-.316.949,1.013,1.013,0,0,0,.949.738.805.805,0,0,0,.527-.211.82.82,0,0,0,.316-1.054.956.956,0,0,0-.949-.633" transform="translate(-0.365 0.991)" fill="#d5d5d5"/><path d="M21.087,54.081a.687.687,0,0,0,.211-.949.922.922,0,0,0-.949-.633,1.5,1.5,0,0,0-.633.211.687.687,0,0,0-.211.949.922.922,0,0,0,.949.633c.316,0,.527,0,.633-.211" transform="translate(-0.529 1.268)" fill="#d5d5d5"/><path d="M22.249,50.9a1.5,1.5,0,0,0-.633.211.687.687,0,0,0-.211.949.922.922,0,0,0,.949.633,1.5,1.5,0,0,0,.633-.211.687.687,0,0,0,.211-.949,1.013,1.013,0,0,0-.949-.633" transform="translate(-0.426 1.181)" fill="#d5d5d5"/><path d="M23.849,49.5a1.5,1.5,0,0,0-.633.211.687.687,0,0,0-.211.949.922.922,0,0,0,.949.633,1.067,1.067,0,0,0,.738-.422.8.8,0,0,0,.105-.843,1.258,1.258,0,0,0-.949-.527" transform="translate(-0.339 1.105)" fill="#d5d5d5"/><path d="M16.354,57.992a1.5,1.5,0,0,0,.633-.211.687.687,0,0,0,.211-.949.922.922,0,0,0-.949-.633,1.5,1.5,0,0,0-.633.211.687.687,0,0,0-.211.949,1.9,1.9,0,0,0,.949.633" transform="translate(-0.751 1.469)" fill="#d5d5d5"/><path d="M18.554,55.992a1.5,1.5,0,0,0,.633-.211.687.687,0,0,0,.211-.949.922.922,0,0,0-.949-.633,1.5,1.5,0,0,0-.633.211.687.687,0,0,0-.211.949,1.013,1.013,0,0,0,.949.633" transform="translate(-0.632 1.36)" fill="#d5d5d5"/><path d="M14.8,58.833a.922.922,0,0,0-.949-.633,1.5,1.5,0,0,0-.633.211.687.687,0,0,0-.211.949.922.922,0,0,0,.949.633,1.067,1.067,0,0,0,.738-.422.625.625,0,0,0,.105-.738" transform="translate(-0.882 1.577)" fill="#d5d5d5"/><path d="M11.449,60.4a1.5,1.5,0,0,0-.633.211.687.687,0,0,0-.211.949.95.95,0,0,0,.633.633.82.82,0,0,0,.843-.211.687.687,0,0,0,.211-.949,1.093,1.093,0,0,0-.843-.633" transform="translate(-1.012 1.697)" fill="#d5d5d5"/><path d="M21.351,57a.888.888,0,0,0,.738-.422.8.8,0,0,0,.105-.843,1.068,1.068,0,0,0-.949-.633.637.637,0,0,0-.633.316A.936.936,0,0,0,21.351,57" transform="translate(-0.476 1.409)" fill="#d5d5d5"/><path d="M22.946,53.3a.888.888,0,0,0-.738.422,1.12,1.12,0,0,0-.105.843,1.212,1.212,0,0,0,.949.633.888.888,0,0,0,.738-.422,1.12,1.12,0,0,0,.105-.843,1.013,1.013,0,0,0-.949-.633" transform="translate(-0.384 1.311)" fill="#d5d5d5"/><path d="M23.813,52.016a1.011,1.011,0,0,0-.211.949,1.212,1.212,0,0,0,.949.633.751.751,0,0,0,.633-.316,1.011,1.011,0,0,0,.211-.949,1.212,1.212,0,0,0-.949-.633.637.637,0,0,0-.633.316" transform="translate(-0.303 1.224)" fill="#d5d5d5"/><path d="M17.451,61.3a.751.751,0,0,0,.633-.316,1.011,1.011,0,0,0,.211-.949,1.068,1.068,0,0,0-.949-.633.751.751,0,0,0-.633.316.936.936,0,0,0,.738,1.581" transform="translate(-0.688 1.642)" fill="#d5d5d5"/><path d="M19.451,59a.751.751,0,0,0,.633-.316,1.011,1.011,0,0,0,.211-.949,1.212,1.212,0,0,0-.949-.633.751.751,0,0,0-.633.316,1.011,1.011,0,0,0-.211.949,1.127,1.127,0,0,0,.949.633" transform="translate(-0.58 1.518)" fill="#d5d5d5"/><path d="M15.994,62.533a1.212,1.212,0,0,0-.949-.633.751.751,0,0,0-.633.316,1.011,1.011,0,0,0-.211.949,1.068,1.068,0,0,0,.949.633.888.888,0,0,0,.738-.422,1.19,1.19,0,0,0,.105-.843" transform="translate(-0.813 1.778)" fill="#d5d5d5"/><path d="M25.746,50.2a.751.751,0,0,0-.633.316,1.011,1.011,0,0,0-.211.949,1.068,1.068,0,0,0,.949.633.751.751,0,0,0,.633-.316.936.936,0,0,0-.738-1.581" transform="translate(-0.232 1.143)" fill="#d5d5d5"/><path d="M23.309,56.122a1.025,1.025,0,0,0-.105.949,1.107,1.107,0,0,0,.949.527.8.8,0,0,0,.738-.422A1.025,1.025,0,0,0,25,56.227a1.107,1.107,0,0,0-.949-.527,1.339,1.339,0,0,0-.738.422" transform="translate(-0.326 1.442)" fill="#d5d5d5"/><path d="M25.447,53.8a.8.8,0,0,0-.738.422,1.025,1.025,0,0,0-.105.949,1.107,1.107,0,0,0,.949.527.8.8,0,0,0,.738-.422.991.991,0,0,0,.105-.949,1.419,1.419,0,0,0-.949-.527" transform="translate(-0.25 1.338)" fill="#d5d5d5"/><path d="M26.647,52.1a.8.8,0,0,0-.738.422,1.025,1.025,0,0,0-.105.949,1.107,1.107,0,0,0,.949.527.8.8,0,0,0,.738-.422.991.991,0,0,0,.105-.949,2.039,2.039,0,0,0-.949-.527" transform="translate(-0.185 1.246)" fill="#d5d5d5"/><path d="M20.852,62a.8.8,0,0,0,.738-.422,1.025,1.025,0,0,0,.105-.949,1.107,1.107,0,0,0-.949-.527.8.8,0,0,0-.738.422,1.025,1.025,0,0,0-.105.949,1.258,1.258,0,0,0,.949.527" transform="translate(-0.505 1.68)" fill="#d5d5d5"/><path d="M22.552,59.7a.8.8,0,0,0,.738-.422.991.991,0,0,0,.105-.949,1.107,1.107,0,0,0-.949-.527.8.8,0,0,0-.738.422,1.025,1.025,0,0,0-.105.949,1.258,1.258,0,0,0,.949.527" transform="translate(-0.413 1.556)" fill="#d5d5d5"/><path d="M18.847,62.7a.8.8,0,0,0-.738.422,1.025,1.025,0,0,0-.105.949,1.107,1.107,0,0,0,.949.527.8.8,0,0,0,.738-.422,1.025,1.025,0,0,0,.105-.949,1.107,1.107,0,0,0-.949-.527" transform="translate(-0.608 1.821)" fill="#d5d5d5"/><path d="M16.747,65.6a.8.8,0,0,0-.738.422,1.025,1.025,0,0,0-.105.949,1.107,1.107,0,0,0,.949.527.8.8,0,0,0,.738-.422.991.991,0,0,0,.105-.949,1.107,1.107,0,0,0-.949-.527" transform="translate(-0.722 1.979)" fill="#d5d5d5"/><path d="M26.49,59.671a.638.638,0,0,0,0-.843,1.075,1.075,0,0,0-.843-.527.888.888,0,0,0-.738.422.791.791,0,0,0,0,.949,1.075,1.075,0,0,0,.843.527.793.793,0,0,0,.738-.527" transform="translate(-0.238 1.583)" fill="#d5d5d5"/><path d="M26,57.571a1.075,1.075,0,0,0,.843.527.888.888,0,0,0,.738-.422,1,1,0,0,0,0-.949,1.075,1.075,0,0,0-.843-.527.888.888,0,0,0-.738.422,1.463,1.463,0,0,0,0,.949" transform="translate(-0.174 1.469)" fill="#d5d5d5"/><path d="M27.108,54.721a.791.791,0,0,0,0,.949,1.075,1.075,0,0,0,.843.527.888.888,0,0,0,.738-.422.638.638,0,0,0,0-.843,1.075,1.075,0,0,0-.843-.527c-.211-.211-.527,0-.738.316" transform="translate(-0.119 1.367)" fill="#d5d5d5"/><path d="M23.588,64.776a.791.791,0,0,0,0-.949,1.075,1.075,0,0,0-.843-.527.888.888,0,0,0-.738.422,1,1,0,0,0,0,.949,1.075,1.075,0,0,0,.843.527,1.339,1.339,0,0,0,.738-.422" transform="translate(-0.394 1.854)" fill="#d5d5d5"/><path d="M24.352,62.492a.888.888,0,0,0,.738-.422.638.638,0,0,0,0-.843,1.075,1.075,0,0,0-.843-.527.888.888,0,0,0-.738.422.791.791,0,0,0,0,.949c.105.316.422.422.843.422" transform="translate(-0.314 1.713)" fill="#d5d5d5"/><path d="M21.046,66.2a.888.888,0,0,0-.738.422.791.791,0,0,0,0,.949,1.075,1.075,0,0,0,.843.527.888.888,0,0,0,.738-.422.791.791,0,0,0,0-.949,1.449,1.449,0,0,0-.843-.527" transform="translate(-0.488 2.011)" fill="#d5d5d5"/><path d="M28.944,52.5a.888.888,0,0,0-.738.422,1,1,0,0,0,0,.949,1.075,1.075,0,0,0,.843.527.888.888,0,0,0,.738-.422.791.791,0,0,0,0-.949.939.939,0,0,0-.843-.527" transform="translate(-0.057 1.268)" fill="#d5d5d5"/><path d="M29.388,59.665a1.155,1.155,0,0,0,0-.843.959.959,0,0,0-.843-.422.793.793,0,0,0-.738.527,1.008,1.008,0,0,0,0,.949.959.959,0,0,0,.843.422,1.115,1.115,0,0,0,.738-.633" transform="translate(-0.079 1.588)" fill="#d5d5d5"/><path d="M30.291,57.465a1.155,1.155,0,0,0,0-.843.959.959,0,0,0-.843-.422.939.939,0,0,0-.843.527,1.155,1.155,0,0,0,0,.843.959.959,0,0,0,.843.422.835.835,0,0,0,.843-.527" transform="translate(-0.033 1.469)" fill="#d5d5d5"/><path d="M30.247,54.2a.939.939,0,0,0-.843.527,1.155,1.155,0,0,0,0,.843.959.959,0,0,0,.843.422.939.939,0,0,0,.843-.527,1.155,1.155,0,0,0,0-.843,1.3,1.3,0,0,0-.843-.422" transform="translate(0.01 1.36)" fill="#d5d5d5"/><path d="M27.091,64.565a1.155,1.155,0,0,0,0-.843.959.959,0,0,0-.843-.422,1.075,1.075,0,0,0-.843.527,1.155,1.155,0,0,0,0,.843.959.959,0,0,0,.843.422.835.835,0,0,0,.843-.527" transform="translate(-0.207 1.854)" fill="#d5d5d5"/><path d="M27.447,62.492a.939.939,0,0,0,.843-.527,1.155,1.155,0,0,0,0-.843.959.959,0,0,0-.843-.422.939.939,0,0,0-.843.527,1.155,1.155,0,0,0,0,.843.959.959,0,0,0,.843.422" transform="translate(-0.142 1.713)" fill="#d5d5d5"/><path d="M24.952,66.2a1.075,1.075,0,0,0-.843.527.641.641,0,0,0,0,.843.959.959,0,0,0,.843.422.939.939,0,0,0,.843-.527,1.155,1.155,0,0,0,0-.843,1.3,1.3,0,0,0-.843-.422" transform="translate(-0.282 2.011)" fill="#d5d5d5"/><path d="M23.347,69.4a.939.939,0,0,0-.843.527,1.155,1.155,0,0,0,0,.843.959.959,0,0,0,.843.422,1.075,1.075,0,0,0,.843-.527,1.155,1.155,0,0,0,0-.843.942.942,0,0,0-.843-.422" transform="translate(-0.364 2.185)" fill="#d5d5d5"/><path d="M30.352,62.3a.95.95,0,0,0,.738-1.476,1.3,1.3,0,0,0-.843-.422,1.075,1.075,0,0,0-.843.527,1.025,1.025,0,0,0,.105.949,1.3,1.3,0,0,0,.843.422" transform="translate(0.011 1.697)" fill="#d5d5d5"/><path d="M32,59.265a.825.825,0,0,0-.105-.843A1.3,1.3,0,0,0,31.05,58a1.075,1.075,0,0,0-.843.527,1.008,1.008,0,0,0,0,.949.959.959,0,0,0,.843.422A.848.848,0,0,0,32,59.265" transform="translate(0.051 1.566)" fill="#d5d5d5"/><path d="M30.9,56.633a.825.825,0,0,0,.105.843,1.3,1.3,0,0,0,.843.422.8.8,0,0,0,.843-.633.825.825,0,0,0-.105-.843A.959.959,0,0,0,31.747,56a.8.8,0,0,0-.843.633" transform="translate(0.092 1.458)" fill="#d5d5d5"/><path d="M28.547,65.9a.95.95,0,0,0-.738,1.476,1.3,1.3,0,0,0,.843.422,1.075,1.075,0,0,0,.843-.527.8.8,0,0,0-.105-.949.959.959,0,0,0-.843-.422" transform="translate(-0.082 1.995)" fill="#d5d5d5"/><path d="M30.4,64.265a.8.8,0,0,0-.105-.843A1.3,1.3,0,0,0,29.447,63a1.075,1.075,0,0,0-.843.527,1.025,1.025,0,0,0,.105.949,1.3,1.3,0,0,0,.843.422.918.918,0,0,0,.843-.633" transform="translate(-0.033 1.838)" fill="#d5d5d5"/><path d="M27.446,69.1a.8.8,0,0,0-.843.633,1.19,1.19,0,0,0,.105.843.959.959,0,0,0,.843.422,1.075,1.075,0,0,0,.843-.527.8.8,0,0,0-.105-.949,1.3,1.3,0,0,0-.843-.422" transform="translate(-0.14 2.169)" fill="#d5d5d5"/><path d="M32.347,54.1a.8.8,0,0,0-.843.633.825.825,0,0,0,.105.843,1.3,1.3,0,0,0,.843.422.95.95,0,0,0,.738-1.476.959.959,0,0,0-.843-.422" transform="translate(0.125 1.355)" fill="#d5d5d5"/><path d="M32.2,60.538a.652.652,0,0,0,.211.738,1.2,1.2,0,0,0,.843.316.815.815,0,0,0,.843-.738.652.652,0,0,0-.211-.738,1.2,1.2,0,0,0-.843-.316.9.9,0,0,0-.843.738" transform="translate(0.164 1.664)" fill="#d5d5d5"/><path d="M34.605,58.654a.652.652,0,0,0-.211-.738,1.2,1.2,0,0,0-.843-.316,1.013,1.013,0,0,0-.949.738.652.652,0,0,0,.211.738,1.3,1.3,0,0,0,.843.422,1.287,1.287,0,0,0,.949-.843" transform="translate(0.186 1.545)" fill="#d5d5d5"/><path d="M35,56.56a.652.652,0,0,0-.211-.738,1.3,1.3,0,0,0-.843-.422,1.075,1.075,0,0,0-.843.527.991.991,0,0,0,.105.949,1.2,1.2,0,0,0,.843.316A.77.77,0,0,0,35,56.56" transform="translate(0.211 1.425)" fill="#d5d5d5"/><path d="M31.949,65.1a1.075,1.075,0,0,0-.843.527.8.8,0,0,0,.105.949,1.2,1.2,0,0,0,.843.316,1.075,1.075,0,0,0,.843-.527.8.8,0,0,0-.105-.949,2.013,2.013,0,0,0-.843-.316" transform="translate(0.101 1.952)" fill="#d5d5d5"/><path d="M32.546,62.3a.815.815,0,0,0-.843.738.652.652,0,0,0,.211.738,1.2,1.2,0,0,0,.843.316.815.815,0,0,0,.843-.738.652.652,0,0,0-.211-.738,2.013,2.013,0,0,0-.843-.316" transform="translate(0.137 1.8)" fill="#d5d5d5"/><path d="M31.247,68.3a1.075,1.075,0,0,0-.843.527,1.025,1.025,0,0,0,.105.949,1.2,1.2,0,0,0,.843.316,1.075,1.075,0,0,0,.843-.527,1.025,1.025,0,0,0-.105-.949,1.2,1.2,0,0,0-.843-.316" transform="translate(0.065 2.125)" fill="#d5d5d5"/><path d="M35.354,61.5a1.107,1.107,0,0,0-.949.527.839.839,0,0,0,.211,1.054,1.139,1.139,0,0,0,.738.316.923.923,0,0,0,.949-.843,1,1,0,0,0-.211-.738,2.519,2.519,0,0,0-.738-.316" transform="translate(0.28 1.756)" fill="#d5d5d5"/><path d="M35.749,59.1a.861.861,0,0,0-.949.843,1.955,1.955,0,0,0,.211.738.957.957,0,0,0,.738.316.861.861,0,0,0,.949-.843,1,1,0,0,0-.211-.738c-.211-.211-.422-.422-.738-.316" transform="translate(0.307 1.625)" fill="#d5d5d5"/><path d="M35.847,56.8a.835.835,0,0,0-.843.527.991.991,0,0,0,.105.949.957.957,0,0,0,.738.316.923.923,0,0,0,.949-.843,1,1,0,0,0-.211-.738,3.269,3.269,0,0,0-.738-.211" transform="translate(0.315 1.501)" fill="#d5d5d5"/><path d="M34.849,67.2a.861.861,0,0,0-.949.843,1,1,0,0,0,.211.738.957.957,0,0,0,.738.316.861.861,0,0,0,.949-.843,1,1,0,0,0-.211-.738,2.232,2.232,0,0,0-.738-.316" transform="translate(0.258 2.066)" fill="#d5d5d5"/><path d="M35.149,64.2a.923.923,0,0,0-.949.843,1,1,0,0,0,.211.738.957.957,0,0,0,.738.316.861.861,0,0,0,.949-.843,1.954,1.954,0,0,0-.211-.738,1.139,1.139,0,0,0-.738-.316" transform="translate(0.275 1.903)" fill="#d5d5d5"/><path d="M36.049,54.9a1.5,1.5,0,0,0-.633.211.751.751,0,0,0-.316.633,1,1,0,0,0,.211.738.957.957,0,0,0,.738.316A.923.923,0,0,0,37,55.954a1,1,0,0,0-.211-.738.821.821,0,0,0-.738-.316" transform="translate(0.324 1.398)" fill="#d5d5d5"/><path d="M38.057,60.4a1.145,1.145,0,0,0-.949.422.958.958,0,0,0,0,1.054,1.028,1.028,0,0,0,.949.422,1.139,1.139,0,0,0,.738-.316.775.775,0,0,0,.211-.633.751.751,0,0,0-.316-.633.631.631,0,0,0-.633-.316" transform="translate(0.424 1.697)" fill="#d5d5d5"/><path d="M38.051,58a1.139,1.139,0,0,0-.738.316c-.211.211-.316.422-.211.633a.751.751,0,0,0,.316.633.652.652,0,0,0,.738.211,1.139,1.139,0,0,0,.738-.316.839.839,0,0,0,.211-1.054A1.077,1.077,0,0,0,38.051,58" transform="translate(0.43 1.565)" fill="#d5d5d5"/><path d="M38.047,57.8a.957.957,0,0,0,.738-.316A.839.839,0,0,0,39,56.428a.849.849,0,0,0-.949-.527,1.13,1.13,0,0,0-.633.211.969.969,0,0,0-.211,1.054,1.093,1.093,0,0,0,.843.633" transform="translate(0.434 1.451)" fill="#d5d5d5"/><path d="M38.049,65.8a1.139,1.139,0,0,0-.738.316.775.775,0,0,0-.211.633.751.751,0,0,0,.316.633c.211.211.422.316.633.211a1.139,1.139,0,0,0,.738-.316A.775.775,0,0,0,39,66.643a.751.751,0,0,0-.316-.633,1.5,1.5,0,0,0-.633-.211" transform="translate(0.432 1.99)" fill="#d5d5d5"/><path d="M38.049,64.794a1.139,1.139,0,0,0,.738-.316c.211-.211.316-.422.211-.633a.751.751,0,0,0-.316-.633c-.211-.105-.422-.316-.633-.211a1.139,1.139,0,0,0-.738.316.775.775,0,0,0-.211.633.751.751,0,0,0,.316.633.891.891,0,0,0,.633.211" transform="translate(0.432 1.836)" fill="#d5d5d5"/><path d="M37.416,70.7h.633a.957.957,0,0,0,.738-.316A.89.89,0,0,0,39,69.643a.861.861,0,0,0-.949-.843,1.955,1.955,0,0,0-.738.211.775.775,0,0,0-.211.633,1.5,1.5,0,0,0,.211.633h.105" transform="translate(0.432 2.152)" fill="#d5d5d5"/><path d="M38.051,72.5a1.139,1.139,0,0,0-.738.316c-.211.211-.316.422-.211.633a.751.751,0,0,0,.316.633c.211.105.422.316.738.211a1.955,1.955,0,0,0,.738-.211.775.775,0,0,0,.211-.633.751.751,0,0,0-.316-.633.617.617,0,0,0-.738-.316" transform="translate(0.43 2.351)" fill="#d5d5d5"/><path d="M37.912,56.816a.751.751,0,0,0,.316.633c.211.211.422.316.633.211a.957.957,0,0,0,.738-.316.775.775,0,0,0,.211-.633c-.211.105-.527.105-.633-.105a.65.65,0,0,1,.422-1.054.775.775,0,0,0,.211-.633v-.211a.8.8,0,0,0,.422.211c-.105,0-.211.105-.316.211a.89.89,0,0,0-.211.738.861.861,0,0,0,.949.843.957.957,0,0,0,.738-.316.992.992,0,0,0-.527-1.581c.105,0,.211-.105.316-.211v.105a.9.9,0,0,0,.843.738c-.105.105-.211.105-.316.211a1.025,1.025,0,0,0-.105.949.939.939,0,0,0,.843.527,1.2,1.2,0,0,0,.843-.316,1.025,1.025,0,0,0,.105-.949.835.835,0,0,0-.843-.527l.316-.316a1,1,0,0,0,.211-.738c0-.105,0-.105-.105-.211a.805.805,0,0,0,.527.211c-.105,0-.105.105-.211.211a2.918,2.918,0,0,0-.105.949.8.8,0,0,0,.843.633.959.959,0,0,0,.843-.422,1.025,1.025,0,0,0,.105-.949.835.835,0,0,0-.843-.527c.105,0,.105-.105.211-.211l.105-.211v.211a.835.835,0,0,0,.843.527H45.5l-.211.211a1.155,1.155,0,0,0,0,.843.835.835,0,0,0,.843.527,1.3,1.3,0,0,0,.843-.422.638.638,0,0,0,0-.843.835.835,0,0,0-.843-.527h-.211c.105-.105.211-.105.211-.211a1.155,1.155,0,0,0,0-.843c0-.105-.105-.105-.105-.211h.527a.368.368,0,0,0-.105.211.638.638,0,0,0,0,.843.706.706,0,0,0,.738.422.939.939,0,0,0,.843-.527,1.155,1.155,0,0,0,0-.843.8.8,0,0,0-.738-.422h-.211c0-.105.105-.105.105-.211s.105-.211.105-.316c0,.105.105.105.105.211a.848.848,0,0,0,1.16.316c-.105.105-.105.105-.105.211a.791.791,0,0,0,0,.949,1.067,1.067,0,0,0,.738.422,1.107,1.107,0,0,0,.949-.527,1.025,1.025,0,0,0-.105-.949,1.067,1.067,0,0,0-.738-.422.634.634,0,0,0-.422.105l.105-.211a1.025,1.025,0,0,0-.105-.949l-.105-.105h.422v.105a.806.806,0,0,0,.211.949.911.911,0,0,0,.633.316,1.013,1.013,0,0,0,.949-.633.687.687,0,0,0-.211-.949.911.911,0,0,0-.633-.316.8.8,0,0,0-.422.105v-.527l.211.211a1.5,1.5,0,0,0,.633.211.805.805,0,0,0,.527-.211V50.6a1.011,1.011,0,0,0,.211.949,1.5,1.5,0,0,0,.633.211,1.212,1.212,0,0,0,.949-.633,1.12,1.12,0,0,0-.105-.843,1.067,1.067,0,0,0-.738-.422.805.805,0,0,0-.527.211v-.105a1.011,1.011,0,0,0-.211-.949,1.5,1.5,0,0,0-.633-.211h-.211a.9.9,0,0,0,0-.738c-.105-.105-.105-.211-.211-.316a.957.957,0,0,0-.738-.316,1.5,1.5,0,0,0-.633.211c-.105,0-.105.105-.211.105l-.105.211a13.4,13.4,0,0,1-16.13,2.214A13.237,13.237,0,0,1,38.966,25.4h2.319l.422.105h.949l.422.105.211.105.422.105.316.105.316.105.316.105c.105,0,.211.105.316.105l.316.211.316.211.316.211.211.211.211.316.211.105.316.211.211.105.316.211.211.211.316.316.211.211.211.316.211.211c0,.105.105.105.105.211v.105l.211.211a1.5,1.5,0,0,0,.633.211.957.957,0,0,0,.738-.316c.105-.105.211-.211.211-.316a1.337,1.337,0,0,0,.105-.633h.527a.706.706,0,0,0,.738-.422.8.8,0,0,0,.105-.843V27.4c.211.105.316.211.527.211a1.5,1.5,0,0,0,.633-.211.687.687,0,0,0,.211-.949.922.922,0,0,0-.949-.633,1.5,1.5,0,0,0-.633.211.687.687,0,0,0-.211.949v.105c-.211-.105-.316-.211-.527-.211a1.5,1.5,0,0,0-.633.211l-.211.211v-.422h.422a.888.888,0,0,0,.738-.422.8.8,0,0,0,.105-.843,1.068,1.068,0,0,0-.949-.633.751.751,0,0,0-.633.316,1.011,1.011,0,0,0-.211.949h-.422l.105-.105a1.025,1.025,0,0,0,.105-.949c-.105,0-.105-.105-.211-.211s0-.211.105-.211h.211c.105.105.105.105.105.211a.8.8,0,0,0,.738-.422.991.991,0,0,0,.105-.949,1.107,1.107,0,0,0-.949-.527.8.8,0,0,0-.738.422,1.025,1.025,0,0,0-.105.949c0,.105.105.105.211.211a.634.634,0,0,0-.422-.105.8.8,0,0,0-.738.422c0,.105-.105.105-.105.211a.387.387,0,0,0-.105-.316c0-.105-.105-.105-.105-.211h.211a.888.888,0,0,0,.738-.422.791.791,0,0,0,0-.949,1.075,1.075,0,0,0-.843-.527.888.888,0,0,0-.738.422.791.791,0,0,0,0,.949l.105.211h-.527c.105-.105.105-.105.105-.211a1.155,1.155,0,0,0,0-.843c-.105-.105-.105-.211-.211-.211h.211a.939.939,0,0,0,.843-.527,1.155,1.155,0,0,0,0-.843.959.959,0,0,0-.843-.422,1.075,1.075,0,0,0-.843.527,1.155,1.155,0,0,0,0,.843l.211.211h-.211a1.075,1.075,0,0,0-.843.527v.211c0-.105,0-.105-.105-.211l.105-.211a.8.8,0,0,0,.843-.633.825.825,0,0,0-.105-.843.959.959,0,0,0-.843-.422,1.075,1.075,0,0,0-.843.527,1.463,1.463,0,0,0,0,.949l.211.211c-.211,0-.316.105-.527.105l.105-.211a.652.652,0,0,0-.211-.738l-.316-.316a1.075,1.075,0,0,0,.843-.527,1.025,1.025,0,0,0-.105-.949.637.637,0,0,0-.633-.316.815.815,0,0,0-.843.738.652.652,0,0,0,.211.738c.105.105.211.211.316.211a.815.815,0,0,0-.843.738v.105c-.105-.105-.211-.211-.316-.211a.9.9,0,0,0,.738-.843,1,1,0,0,0-.211-.738.957.957,0,0,0-.738-.316.923.923,0,0,0-.949.843,1,1,0,0,0,.211.738c.105.105.211.211.316.211a.548.548,0,0,0-.422.211v-.211a1.5,1.5,0,0,0-.211-.633.8.8,0,0,0-.422-.211.9.9,0,0,0,.738-.843,1.5,1.5,0,0,0-.211-.633.957.957,0,0,0-.738-.316,1.107,1.107,0,0,0-.949.527.9.9,0,0,0,.633,1.265.9.9,0,0,0-.738.843v.211a.8.8,0,0,0-.422-.211c.105,0,.211-.105.316-.211a.839.839,0,0,0,.211-1.054.922.922,0,0,0-.949-.527.957.957,0,0,0-.738.316.992.992,0,0,0,.527,1.581c-.105,0-.211.105-.316.211v-.105a.9.9,0,0,0-.843-.738c.105-.105.211-.105.316-.211a1,1,0,0,0,.211-.738.924.924,0,0,0-.949-.738.959.959,0,0,0-.843.422,1.025,1.025,0,0,0-.105.949.835.835,0,0,0,.843.527c-.105.105-.211.105-.316.211a1,1,0,0,0-.211.738v.211a.634.634,0,0,0-.422-.105c.105,0,.105-.105.211-.211a.95.95,0,0,0-.738-1.476.959.959,0,0,0-.843.422.95.95,0,0,0,.738,1.476l-.211.211a.368.368,0,0,0-.105.211c0-.105,0-.211-.105-.211a.835.835,0,0,0-.843-.527h-.211c.105-.105.211-.105.211-.211a1.155,1.155,0,0,0,0-.843.835.835,0,0,0-.843-.527,1.3,1.3,0,0,0-.843.422,1.155,1.155,0,0,0,0,.843.835.835,0,0,0,.843.527h.211l-.211.211a1.155,1.155,0,0,0,0,.843.327.327,0,0,0,.105.211H31.9l.105-.211a1.463,1.463,0,0,0,0-.949.706.706,0,0,0-.738-.422.939.939,0,0,0-.843.527.791.791,0,0,0,0,.949.706.706,0,0,0,.738.422h.211l-.105.211c0,.105-.105.211-.105.316,0-.105-.105-.105-.105-.211-.527-.527-.738-.738-1.054-.738a.634.634,0,0,0-.422.105l.211-.211a.791.791,0,0,0,0-.949,1.067,1.067,0,0,0-.738-.422,1.107,1.107,0,0,0-.949.527.791.791,0,0,0,0,.949,1.067,1.067,0,0,0,.738.422.634.634,0,0,0,.422-.105l-.211.211a.791.791,0,0,0,0,.949l.105.211h-.527a.687.687,0,0,0-.211-.949.911.911,0,0,0-.633-.316,1.013,1.013,0,0,0-.949.633.806.806,0,0,0,.211.949.911.911,0,0,0,.633.316.8.8,0,0,0,.422-.105v.527c0-.105-.105-.105-.211-.211a1.5,1.5,0,0,0-.633-.211.805.805,0,0,0-.527.211v-.105a1.011,1.011,0,0,0-.211-.949.775.775,0,0,0-.633-.211,1.212,1.212,0,0,0-.949.633,1.011,1.011,0,0,0,.211.949.775.775,0,0,0,.633.211.805.805,0,0,0,.527-.211v.105a1.011,1.011,0,0,0,.211.949l.211.105c-.211,0-.316.105-.527.211a.954.954,0,0,0-.316-1.054.805.805,0,0,0-.527-.211,1.019,1.019,0,0,0-.633,1.792c.211.105.316.211.527.211s.316-.105.527-.211a.479.479,0,0,0,0,.527l-.211-.211a.79.79,0,0,0-.527-.105.751.751,0,0,0-.633.316A1,1,0,0,0,24,28.456a.634.634,0,0,0-.422-.105,1.013,1.013,0,0,0-.949.738,1,1,0,0,0,.422,1.054.634.634,0,0,0,.422.105.751.751,0,0,0,.633-.316,1,1,0,0,0,.422,1.054h.211c-.211,0-.316.105-.422.316a.922.922,0,0,0-.527-.949.634.634,0,0,0-.422-.105,1,1,0,0,0-.949.843.924.924,0,0,0,.527,1.054c.105.105.211.105.422.105A.751.751,0,0,0,24,31.935v.527c-.105,0-.105-.105-.211-.105h-.316a.888.888,0,0,0-.738.422.821.821,0,0,0-.633-.949h-.316a1.121,1.121,0,0,0-.949.843,1,1,0,0,0,.633,1.054h.316a.888.888,0,0,0,.738-.422.821.821,0,0,0,.633.949h.316a.7.7,0,0,0-.527.422.9.9,0,0,0-.738-.843h-.211a1.014,1.014,0,0,0-.949.843.869.869,0,0,0,.738,1.054h.211a.888.888,0,0,0,.738-.422.548.548,0,0,0,.211.422h.211a.821.821,0,0,0-.949.633c0-.422-.422-.738-.843-.843a1,1,0,0,0-.738.211.911.911,0,0,0-.316.633c0,.211,0,.527.211.633a.751.751,0,0,0,.633.316h.105a.939.939,0,0,1,.843-.527.721.721,0,0,1,.738.738h.211a1.455,1.455,0,0,0-.316.422.8.8,0,0,0-.843-.633.751.751,0,0,0-.633.316c-.105.211-.211.316-.211.527a1.13,1.13,0,0,0,.211.633.911.911,0,0,0,.633.316.8.8,0,0,0,.843-.633c.105.105.105.316.316.422h-.211a.9.9,0,0,1-.738.633A.79.79,0,0,1,21.254,39h-.211a1,1,0,0,0-.843.949,1.121,1.121,0,0,0,.843.949h.105a.907.907,0,0,0,.843-.843.8.8,0,0,0,.843.633h.316a1.141,1.141,0,0,1-.105.633.706.706,0,0,0-.738-.422H22.1a.9.9,0,0,0-.527.316.7.7,0,0,0-.105.633.861.861,0,0,0,.949.843h.211a.9.9,0,0,0,.738-.843c.105.105.211.316.316.316h-.211a.922.922,0,0,0-.633.949,1.155,1.155,0,0,0-.843,0h-.316a.877.877,0,0,0-.633,1.054.907.907,0,0,0,.843.843H22.2a.922.922,0,0,0,.633-.949.706.706,0,0,0,.738.422h.316l.211-.105a.321.321,0,0,1,0,.422c-.105.105-.316.211-.422.105a.548.548,0,0,1-.211-.422.634.634,0,0,0-.422.105.924.924,0,0,0-.527,1.054,1.144,1.144,0,0,0,.843.843.634.634,0,0,0,.422-.105.754.754,0,0,0,.527-.949,1.455,1.455,0,0,0,.422.316c-.105,0-.211,0-.211.105a.863.863,0,0,0-.422,1.054.911.911,0,0,0-.633-.316c-.211,0-.316,0-.422.105a.863.863,0,0,0-.422,1.054.924.924,0,0,0,.949.738c.211,0,.316,0,.422-.105a.863.863,0,0,0,.422-1.054.911.911,0,0,0,.633.316c.211,0,.316,0,.422-.105l.211-.105a.479.479,0,0,0,0,.527.764.764,0,0,0-1.054,0,.82.82,0,0,0-.316,1.054,1.013,1.013,0,0,0,.949.738.805.805,0,0,0,.527-.211.85.85,0,0,0,.316-.949.8.8,0,0,0,.422.211c-.105,0-.105.105-.211.105a.687.687,0,0,0-.211.949v.105a.805.805,0,0,0-.527-.211,1.5,1.5,0,0,0-.633.211.687.687,0,0,0-.211.949.922.922,0,0,0,.949.633,1.5,1.5,0,0,0,.633-.211.687.687,0,0,0,.211-.949v-.105a.805.805,0,0,0,.527.211,1.5,1.5,0,0,0,.633-.211c.105,0,.105-.105.105-.211V50.6c-.105-.105-.211-.105-.422-.105a.888.888,0,0,0-.738.422,1.12,1.12,0,0,0-.105.843,1.212,1.212,0,0,0,.949.633.637.637,0,0,0,.633-.316,1.011,1.011,0,0,0,.211-.949v-.105c.105.105.211.105.422.105h.105c-.105,0-.105.105-.211.211a1.025,1.025,0,0,0-.105.949c0,.105.105.105.211.211a.634.634,0,0,0-.422-.105.8.8,0,0,0-.738.422,1.025,1.025,0,0,0-.105.949,1.107,1.107,0,0,0,.949.527.8.8,0,0,0,.738-.422.991.991,0,0,0,.105-.949c0-.105-.105-.105-.105-.211.105.105.211.105.422.105a.8.8,0,0,0,.738-.422,1.025,1.025,0,0,0,.105-.949h.422l-.211.211a.791.791,0,0,0,0,.949c0,.105.105.105.105.211h-.211a.888.888,0,0,0-.738.422.791.791,0,0,0,0,.949,1.075,1.075,0,0,0,.843.527.793.793,0,0,0,.738-.527.638.638,0,0,0,0-.843c0-.105-.105-.105-.105-.211H31.8c-.105.105-.105.105-.105.211a1.155,1.155,0,0,0,0,.843l.316.316H31.8a.939.939,0,0,0-.843.527,1.155,1.155,0,0,0,0,.843.959.959,0,0,0,.843.422.939.939,0,0,0,.843-.527,1.155,1.155,0,0,0,0-.843l-.211-.211h.211a1.075,1.075,0,0,0,.843-.527v-.211c0,.105.105.105.105.211l.211.211a.8.8,0,0,0-.843.633,1.19,1.19,0,0,0,.105.843,1.3,1.3,0,0,0,.843.422.8.8,0,0,0,.843-.633.825.825,0,0,0-.105-.843l-.211-.211a.95.95,0,0,0,.527-.105c0,.105-.105.105-.105.211a.924.924,0,0,1,.527,1.054.9.9,0,0,1-.843.738.652.652,0,0,0,.211.738,1.3,1.3,0,0,0,.843.422,1.075,1.075,0,0,0,.843-.527.991.991,0,0,0-.105-.949c-.105-.105-.211-.211-.316-.211a.815.815,0,0,0,.843-.738v-.422c.105.105.211.211.316.211a1.021,1.021,0,0,0-.738.843,1,1,0,0,0,.211.738.957.957,0,0,0,.738.316,1.5,1.5,0,0,0,.633-.211.751.751,0,0,0,.316-.633,1,1,0,0,0-.211-.738.387.387,0,0,1-.316-.105c-.105-.105,0-.211.105-.316a.2.2,0,0,1,.316,0v.211a.815.815,0,0,0,.738.843.8.8,0,0,0-.422.211.957.957,0,0,0-.316.738Zm3.69-33,.211.211c-.105,0-.211,0-.211.105a.2.2,0,0,1,0-.316Zm6.853,3.163a.368.368,0,0,0-.105.211V26.98h.105ZM45.924,25.4v0h0c0-.105.105-.105.211-.105l-.105.105Zm-2.847-1.16v.211l-.211-.211a.387.387,0,0,0,.316-.105c0,.105,0,.105-.105.105Zm-4.217-.422-.211.105v-.316c.105.105.211.105.211.211Zm-3.163.316-.211.211v-.316c.105,0,.105.105.211.105Zm-3.057,1.16V25.4c-.105-.105-.105-.105,0-.105l-.211-.211a.387.387,0,0,0,.316.105l-.105.105Zm-6.853,6.22v.211l-.105-.105h-.105l.211-.105Zm-.949,2h.211a.227.227,0,0,0-.211.211v-.211Zm-.633,3.163L24,36.89c0-.105-.105-.211-.105-.316H24l.211.105ZM24.1,41h-.316c.105-.105.105-.211.211-.316,0,.105.105.211.105.316Zm.527,2.847.211.211h-.316v-.316Zm.738,1.9c.105,0,.105,0,.211-.105v.316a.387.387,0,0,0-.316-.105l.105-.105Zm1.9,2.636V48.7h-.316l.105-.105.211-.211ZM50.458,28.35h0v0Zm-2.53-2h-.211a.1.1,0,0,1,.105-.105v-.105c0,.105,0,.211.105.211Zm-2.952-1.581h0l-.211.105v-.316c0,.105.105.105.105.211ZM39.7,23.606v.211l-.211-.211Zm-3.163.211v0l.211-.105v.211Zm-2.952.843v.211h-.316l.105-.105v0Zm-3.057,1.476c0,.105.105.105.105.211h-.316v-.105Zm-1.265.633h.211v.211l-.211-.211ZM27.9,28.14l.105.105h-.316v-.316c.105,0,.105.105.211.211Zm-.738.738v.316l-.105-.105h.211Zm-1.265,1.687L26,30.67l-.211.105v-.316l.105.105Zm-2.425,7.064c0,.105.105.105.105.211h0l.211-.211Zm.211,2.109h.211a.327.327,0,0,0-.105.211c-.105-.105-.105-.211-.211-.211ZM24.206,43h.211c0,.105-.105.211-.105.316L24.1,43.11,24.206,43Zm1.581,4.006c.105.105.105.105.211.105-.105,0-.105,0-.211.105h-.105a.327.327,0,0,0,.105-.211Zm1.9,2.425H27.9V49.33Zm1.687,1.476.105-.211c0,.105,0,.211-.105.211l-.105.105h-.105l.105-.105ZM32.113,52.7v0h0c0,.105-.105.105-.211.105l.105-.105Zm2.847,1.054v-.211c0,.105.105.105.211.211-.105,0-.211.105-.316.105v-.105Zm7.274-.105c.105,0,.105-.105.211-.211v.316a.387.387,0,0,1-.316-.105ZM45.186,52.6l.105-.105V52.7h-.316Zm2.741-1.476h-.211v-.105a.1.1,0,0,0,.105.105ZM38.65,54.18a.368.368,0,0,0,.211-.105v.316a.227.227,0,0,0-.211-.211Zm2.109-.105v-.211a.387.387,0,0,0,.316.105l-.316.105Zm3.163-.949c0-.105,0-.105-.105-.211h.316l-.105.105v0Zm3.057-1.476c0-.105-.105-.105-.105-.211h.316v.105Zm2.636-2.109h0c.105,0,.105.105.105.211l-.105-.211ZM32.851,52.915h0l.211-.105v.316l-.105-.211Zm3.268,1.054-.105-.211h.211c0,.105,0,.105-.105.211.105,0,.105.105.105.211Zm2.109.316v-.211l.211.211c-.105,0-.211.105-.316.211a.327.327,0,0,0,.105-.211ZM24.312,34.36a.387.387,0,0,0,.105.316l-.211-.105H23.89c.105,0,.211,0,.422-.211Z" transform="translate(-0.485 -0.518)" fill="#d5d5d5"/><path d="M41.287,63.082a.839.839,0,0,0,.211-1.054.922.922,0,0,0-.949-.527.957.957,0,0,0-.738.316.89.89,0,0,0-.211.738.861.861,0,0,0,.949.843,2.519,2.519,0,0,0,.738-.316" transform="translate(0.568 1.755)" fill="#d5d5d5"/><path d="M41.087,60.581a.89.89,0,0,0,.211-.738A.861.861,0,0,0,40.349,59a.957.957,0,0,0-.738.316.89.89,0,0,0-.211.738.929.929,0,0,0,.949.843,1.139,1.139,0,0,0,.738-.316" transform="translate(0.557 1.621)" fill="#d5d5d5"/><path d="M40.787,58.381A.89.89,0,0,0,41,57.643a.861.861,0,0,0-.949-.843.957.957,0,0,0-.738.316.89.89,0,0,0-.211.738.861.861,0,0,0,.949.843.821.821,0,0,0,.738-.316" transform="translate(0.541 1.501)" fill="#d5d5d5"/><path d="M41.987,68.781a.89.89,0,0,0,.211-.738.929.929,0,0,0-.949-.843.957.957,0,0,0-.738.316.89.89,0,0,0-.211.738.929.929,0,0,0,.949.843,1.139,1.139,0,0,0,.738-.316" transform="translate(0.606 2.066)" fill="#d5d5d5"/><path d="M40.849,66.1a.957.957,0,0,0,.738-.316.89.89,0,0,0,.211-.738.929.929,0,0,0-.949-.843.957.957,0,0,0-.738.316.89.89,0,0,0-.211.738,1,1,0,0,0,.949.843" transform="translate(0.584 1.903)" fill="#d5d5d5"/><path d="M42.5,71.443a.861.861,0,0,0-.949-.843.957.957,0,0,0-.738.316l-.105.211a.95.95,0,0,0-.105.527.861.861,0,0,0,.949.843.957.957,0,0,0,.738-.316c.105-.105.105-.211.211-.316,0-.105,0-.316,0-.422" transform="translate(0.622 2.25)" fill="#d5d5d5"/><path d="M40.587,56.381a.89.89,0,0,0,.211-.738.861.861,0,0,0-.949-.843.957.957,0,0,0-.738.316.89.89,0,0,0-.211.738.861.861,0,0,0,.949.843.957.957,0,0,0,.738-.316" transform="translate(0.53 1.393)" fill="#d5d5d5"/><path d="M42.847,61.7a.959.959,0,0,0,.843-.422,1,1,0,0,0,.211-.738.924.924,0,0,0-.949-.738.959.959,0,0,0-.843.422,1.025,1.025,0,0,0-.105.949,1.075,1.075,0,0,0,.843.527" transform="translate(0.694 1.664)" fill="#d5d5d5"/><path d="M42.349,59.392a1.2,1.2,0,0,0,.843-.316,1,1,0,0,0,.211-.738.924.924,0,0,0-.949-.738,1.2,1.2,0,0,0-.843.316.889.889,0,0,0,.738,1.476" transform="translate(0.665 1.545)" fill="#d5d5d5"/><path d="M41.949,55.5a1.2,1.2,0,0,0-.843.316A2.321,2.321,0,0,0,41,56.66a.9.9,0,0,0,.843.738,1.2,1.2,0,0,0,.843-.316,1,1,0,0,0,.211-.738.923.923,0,0,0-.949-.843" transform="translate(0.644 1.431)" fill="#d5d5d5"/><path d="M44.049,67a.959.959,0,0,0,.843-.422A1.025,1.025,0,0,0,45,65.627a.835.835,0,0,0-.843-.527,1.2,1.2,0,0,0-.843.316,1,1,0,0,0-.211.738.853.853,0,0,0,.949.843" transform="translate(0.758 1.952)" fill="#d5d5d5"/><path d="M44.192,63.876a1.025,1.025,0,0,0,.105-.949.835.835,0,0,0-.843-.527,1.2,1.2,0,0,0-.843.316,1,1,0,0,0-.211.738.924.924,0,0,0,.949.738,1.2,1.2,0,0,0,.843-.316" transform="translate(0.72 1.805)" fill="#d5d5d5"/><path d="M45.454,71.8a1.2,1.2,0,0,0-.843.316,1,1,0,0,0-.211.738.9.9,0,0,0,.843.738,1.2,1.2,0,0,0,.843-.316,1,1,0,0,0,.211-.738.752.752,0,0,0-.843-.738" transform="translate(0.828 2.315)" fill="#d5d5d5"/><path d="M45.647,62.3a.959.959,0,0,0,.843-.422.95.95,0,0,0-.738-1.476.959.959,0,0,0-.843.422.95.95,0,0,0,.738,1.476" transform="translate(0.846 1.697)" fill="#d5d5d5"/><path d="M44.847,60a.959.959,0,0,0,.843-.422.95.95,0,0,0-.738-1.476.959.959,0,0,0-.843.422.8.8,0,0,0-.105.843.918.918,0,0,0,.843.633" transform="translate(0.803 1.572)" fill="#d5d5d5"/><path d="M44.99,57.476A.95.95,0,0,0,44.252,56a.959.959,0,0,0-.843.422.95.95,0,0,0,.738,1.476.942.942,0,0,0,.843-.422" transform="translate(0.765 1.458)" fill="#d5d5d5"/><path d="M48.3,67.376a.791.791,0,0,0,0-.949.939.939,0,0,0-.843-.527.959.959,0,0,0-.843.422.95.95,0,0,0,.738,1.476,1.028,1.028,0,0,0,.949-.422" transform="translate(0.939 1.995)" fill="#d5d5d5"/><path d="M47.3,64.476a.791.791,0,0,0,0-.949A.939.939,0,0,0,46.452,63a.959.959,0,0,0-.843.422.95.95,0,0,0,.738,1.476c.527,0,.738-.105.949-.422" transform="translate(0.884 1.838)" fill="#d5d5d5"/><path d="M48.549,69.2a.957.957,0,0,0-.738.316.89.89,0,0,0-.211.738.861.861,0,0,0,.949.843.957.957,0,0,0,.738-.316.368.368,0,0,0,.105-.211.8.8,0,0,0,.105-.843.713.713,0,0,0-.949-.527" transform="translate(1.002 2.173)" fill="#d5d5d5"/><path d="M43.547,56a.959.959,0,0,0,.843-.422.95.95,0,0,0-.738-1.476.959.959,0,0,0-.843.422.8.8,0,0,0-.105.843.918.918,0,0,0,.843.633" transform="translate(0.732 1.355)" fill="#d5d5d5"/><path d="M47.546,60.2a1.1,1.1,0,0,0,.843-.422.791.791,0,0,0,0-.949,1.22,1.22,0,0,0-.738-.527,1.3,1.3,0,0,0-.843.422.791.791,0,0,0,0,.949c.211.316.422.527.738.527" transform="translate(0.95 1.583)" fill="#d5d5d5"/><path d="M47.391,57.571a1.155,1.155,0,0,0,0-.843.835.835,0,0,0-.843-.527,1.3,1.3,0,0,0-.843.422,1.155,1.155,0,0,0,0,.843.835.835,0,0,0,.843.527.775.775,0,0,0,.843-.422" transform="translate(0.895 1.469)" fill="#d5d5d5"/><path d="M44.908,54.722a.641.641,0,0,0,0,.843.835.835,0,0,0,.843.527,1.3,1.3,0,0,0,.843-.422,1.155,1.155,0,0,0,0-.843.835.835,0,0,0-.843-.527,1.3,1.3,0,0,0-.843.422" transform="translate(0.847 1.366)" fill="#d5d5d5"/><path d="M50.595,64.771a1.155,1.155,0,0,0,0-.843.835.835,0,0,0-.843-.527,1.3,1.3,0,0,0-.843.422.641.641,0,0,0,0,.843.835.835,0,0,0,.843.527,1.1,1.1,0,0,0,.843-.422" transform="translate(1.064 1.859)" fill="#d5d5d5"/><path d="M48.552,62.592a1.3,1.3,0,0,0,.843-.422,1.155,1.155,0,0,0,0-.843.835.835,0,0,0-.843-.527,1.3,1.3,0,0,0-.843.422.641.641,0,0,0,0,.843,1.075,1.075,0,0,0,.843.527" transform="translate(0.999 1.718)" fill="#d5d5d5"/><path d="M51.985,67.676a.791.791,0,0,0,0-.949,1.22,1.22,0,0,0-.738-.527,1.1,1.1,0,0,0-.843.422,1.155,1.155,0,0,0,0,.843.835.835,0,0,0,.843.527c.211.211.527,0,.738-.316" transform="translate(1.15 2.011)" fill="#d5d5d5"/><path d="M52.552,69.3a1.3,1.3,0,0,0-.843.422.791.791,0,0,0,0,.949,1.22,1.22,0,0,0,.738.527,1.3,1.3,0,0,0,.843-.422.641.641,0,0,0,0-.843.77.77,0,0,0-.738-.633" transform="translate(1.216 2.18)" fill="#d5d5d5"/><path d="M50.346,60.3a.939.939,0,0,0,.843-.527,1.463,1.463,0,0,0,0-.949.706.706,0,0,0-.738-.422.939.939,0,0,0-.843.527.791.791,0,0,0,0,.949.888.888,0,0,0,.738.422" transform="translate(1.102 1.588)" fill="#d5d5d5"/><path d="M49.252,56.2a.939.939,0,0,0-.843.527.9.9,0,0,0,.738,1.371.939.939,0,0,0,.843-.527,1.463,1.463,0,0,0,0-.949,2.643,2.643,0,0,0-.738-.422" transform="translate(1.037 1.469)" fill="#d5d5d5"/><path d="M47.208,54.823a.9.9,0,0,0,.738,1.371.939.939,0,0,0,.843-.527.638.638,0,0,0,0-.843.706.706,0,0,0-.738-.422.775.775,0,0,0-.843.422" transform="translate(0.972 1.37)" fill="#d5d5d5"/><path d="M54.185,63.822a.8.8,0,0,0-.738-.422.939.939,0,0,0-.843.527,1.463,1.463,0,0,0,0,.949.8.8,0,0,0,.738.422.939.939,0,0,0,.843-.527,1.463,1.463,0,0,0,0-.949" transform="translate(1.269 1.859)" fill="#d5d5d5"/><path d="M51.746,62.592a.835.835,0,0,0,.843-.527.638.638,0,0,0,0-.843.706.706,0,0,0-.738-.422.939.939,0,0,0-.843.527.638.638,0,0,0,0,.843.706.706,0,0,0,.738.422" transform="translate(1.178 1.718)" fill="#d5d5d5"/><path d="M55.047,66.3a.939.939,0,0,0-.843.527,1.463,1.463,0,0,0,0,.949.8.8,0,0,0,.738.422.939.939,0,0,0,.843-.527.791.791,0,0,0,0-.949.759.759,0,0,0-.738-.422" transform="translate(1.356 2.017)" fill="#d5d5d5"/><path d="M47.052,52.6a.939.939,0,0,0-.843.527.791.791,0,0,0,0,.949.706.706,0,0,0,.738.422.939.939,0,0,0,.843-.527,1.463,1.463,0,0,0,0-.949.888.888,0,0,0-.738-.422" transform="translate(0.918 1.273)" fill="#d5d5d5"/><path d="M51.749,57.8a1.107,1.107,0,0,0,.949-.527.8.8,0,0,0-.105-.949.888.888,0,0,0-.738-.422,1.107,1.107,0,0,0-.949.527.8.8,0,0,0,.105.949.914.914,0,0,0,.738.422" transform="translate(1.175 1.452)" fill="#d5d5d5"/><path d="M50.344,55.9a1.107,1.107,0,0,0,.949-.527A.9.9,0,0,0,50.555,54a1.107,1.107,0,0,0-.949.527.8.8,0,0,0,.105.949c.211.211.422.422.633.422" transform="translate(1.105 1.349)" fill="#d5d5d5"/><path d="M48.3,52.929a1.025,1.025,0,0,0,.105.949.888.888,0,0,0,.738.422,1.107,1.107,0,0,0,.949-.527.791.791,0,0,0,0-.949,1.067,1.067,0,0,0-.738-.422c-.422-.105-.738.105-1.054.527" transform="translate(1.036 1.261)" fill="#d5d5d5"/><path d="M55.057,60.4a1.107,1.107,0,0,0-.949.527.791.791,0,0,0,0,.949,1.067,1.067,0,0,0,.738.422,1.107,1.107,0,0,0,.949-.527,1.025,1.025,0,0,0-.105-.949.656.656,0,0,0-.633-.422" transform="translate(1.347 1.697)" fill="#d5d5d5"/><path d="M53.247,59.9a1.107,1.107,0,0,0,.949-.527.8.8,0,0,0-.105-.949A1.067,1.067,0,0,0,53.352,58a1.107,1.107,0,0,0-.949.527,1.025,1.025,0,0,0,.105.949.914.914,0,0,0,.738.422" transform="translate(1.259 1.566)" fill="#d5d5d5"/><path d="M56.952,63a1.107,1.107,0,0,0-.949.527.8.8,0,0,0,.105.843,1.067,1.067,0,0,0,.738.422,1.107,1.107,0,0,0,.949-.527,1.025,1.025,0,0,0-.105-.949A.821.821,0,0,0,56.952,63" transform="translate(1.454 1.838)" fill="#d5d5d5"/><path d="M59.052,65.8a1.107,1.107,0,0,0-.949.527,1.025,1.025,0,0,0,.105.949,1.067,1.067,0,0,0,.738.422,1.107,1.107,0,0,0,.949-.527.8.8,0,0,0-.105-.843c-.211-.211-.422-.527-.738-.527" transform="translate(1.568 1.99)" fill="#d5d5d5"/><path d="M55.4,56.665a.8.8,0,0,0-.105-.843,1.067,1.067,0,0,0-.738-.422,1.013,1.013,0,0,0-.949.633.806.806,0,0,0,.211.949.911.911,0,0,0,.633.316.922.922,0,0,0,.949-.633" transform="translate(1.324 1.425)" fill="#d5d5d5"/><path d="M53.8,54.865a.806.806,0,0,0-.211-.949.911.911,0,0,0-.633-.316,1.013,1.013,0,0,0-.949.633.806.806,0,0,0,.211.949.911.911,0,0,0,.633.316,1.212,1.212,0,0,0,.949-.633" transform="translate(1.237 1.328)" fill="#d5d5d5"/><path d="M50.5,52.533a.806.806,0,0,0,.211.949.911.911,0,0,0,.633.316,1.013,1.013,0,0,0,.949-.633.806.806,0,0,0-.211-.949.911.911,0,0,0-.633-.316,1.535,1.535,0,0,0-.949.633" transform="translate(1.156 1.235)" fill="#d5d5d5"/><path d="M58.447,61.6a1.013,1.013,0,0,0,.949-.633.806.806,0,0,0-.211-.949.911.911,0,0,0-.633-.316,1.013,1.013,0,0,0-.949.633.806.806,0,0,0,.211.949.637.637,0,0,0,.633.316" transform="translate(1.541 1.659)" fill="#d5d5d5"/><path d="M56.347,59.3a1.013,1.013,0,0,0,.949-.633.8.8,0,0,0-.105-.843,1.067,1.067,0,0,0-.738-.422,1.013,1.013,0,0,0-.949.633.806.806,0,0,0,.211.949.751.751,0,0,0,.633.316" transform="translate(1.427 1.534)" fill="#d5d5d5"/><path d="M60.752,62.2a1.013,1.013,0,0,0-.949.633.806.806,0,0,0,.211.949.911.911,0,0,0,.633.316,1.013,1.013,0,0,0,.949-.633.8.8,0,0,0-.105-.843.888.888,0,0,0-.738-.422" transform="translate(1.661 1.794)" fill="#d5d5d5"/><path d="M50.054,50.4a1.013,1.013,0,0,0-.949.633.687.687,0,0,0,.211.949.911.911,0,0,0,.633.316,1.013,1.013,0,0,0,.949-.633.806.806,0,0,0-.211-.949,1.716,1.716,0,0,0-.633-.316" transform="translate(1.078 1.154)" fill="#d5d5d5"/><path d="M56.294,53.96a1.011,1.011,0,0,0-.211-.949,1.5,1.5,0,0,0-.633-.211,1.212,1.212,0,0,0-.949.633,1.011,1.011,0,0,0,.211.949,1.5,1.5,0,0,0,.633.211.848.848,0,0,0,.949-.633" transform="translate(1.374 1.284)" fill="#d5d5d5"/><path d="M54.594,52.365a.8.8,0,0,0-.105-.843,1.067,1.067,0,0,0-.738-.422,1.212,1.212,0,0,0-.949.633,1.011,1.011,0,0,0,.211.949,1.5,1.5,0,0,0,.633.211.8.8,0,0,0,.949-.527" transform="translate(1.282 1.192)" fill="#d5d5d5"/><path d="M51.2,50.429a.8.8,0,0,0,.105.843,1.067,1.067,0,0,0,.738.422A1.212,1.212,0,0,0,53,51.061a1.011,1.011,0,0,0-.211-.949,1.5,1.5,0,0,0-.633-.211.8.8,0,0,0-.949.527" transform="translate(1.194 1.125)" fill="#d5d5d5"/><path d="M59.446,58.292a1.212,1.212,0,0,0,.949-.633,1.011,1.011,0,0,0-.211-.949.775.775,0,0,0-.633-.211,1.212,1.212,0,0,0-.949.633,1.011,1.011,0,0,0,.211.949,1.5,1.5,0,0,0,.633.211" transform="translate(1.597 1.485)" fill="#d5d5d5"/><path d="M57.346,56.392a1.212,1.212,0,0,0,.949-.633,1.011,1.011,0,0,0-.211-.949,1.5,1.5,0,0,0-.633-.211,1.212,1.212,0,0,0-.949.633,1.011,1.011,0,0,0,.211.949,1.13,1.13,0,0,0,.633.211" transform="translate(1.483 1.382)" fill="#d5d5d5"/><path d="M61.951,58.6a1.212,1.212,0,0,0-.949.633,1.011,1.011,0,0,0,.211.949.775.775,0,0,0,.633.211,1.212,1.212,0,0,0,.949-.633.8.8,0,0,0-.105-.843.821.821,0,0,0-.738-.316" transform="translate(1.727 1.599)" fill="#d5d5d5"/><path d="M64.651,61a1.212,1.212,0,0,0-.949.633,1.011,1.011,0,0,0,.211.949,1.5,1.5,0,0,0,.633.211,1.212,1.212,0,0,0,.949-.633.8.8,0,0,0-.105-.843A1.139,1.139,0,0,0,64.651,61" transform="translate(1.874 1.729)" fill="#d5d5d5"/><path d="M52.89,19.776A1.025,1.025,0,0,0,53,18.827a1.107,1.107,0,0,0-.949-.527.8.8,0,0,0-.738.422,1.025,1.025,0,0,0-.105.949,1.107,1.107,0,0,0,.949.527,1.067,1.067,0,0,0,.738-.422" transform="translate(1.194 -0.588)" fill="#d5d5d5"/><path d="M50.752,22.1a.8.8,0,0,0,.738-.422,1.025,1.025,0,0,0,.105-.949,1.107,1.107,0,0,0-.949-.527.8.8,0,0,0-.738.422.991.991,0,0,0-.105.949,1.107,1.107,0,0,0,.949.527" transform="translate(1.118 -0.485)" fill="#d5d5d5"/><path d="M49.452,23.7a.8.8,0,0,0,.738-.422,1.025,1.025,0,0,0,.105-.949,1.107,1.107,0,0,0-.949-.527.8.8,0,0,0-.738.422.991.991,0,0,0-.105.949,1.258,1.258,0,0,0,.949.527" transform="translate(1.047 -0.398)" fill="#d5d5d5"/><path d="M55.247,13.9a.8.8,0,0,0-.738.422,1.025,1.025,0,0,0-.105.949,1.107,1.107,0,0,0,.949.527.8.8,0,0,0,.738-.422,1.025,1.025,0,0,0,.105-.949,1.107,1.107,0,0,0-.949-.527" transform="translate(1.367 -0.827)" fill="#d5d5d5"/><path d="M53.546,16.2a.9.9,0,0,0-.738,1.371,1.075,1.075,0,0,0,.843.527.8.8,0,0,0,.738-.422,1.025,1.025,0,0,0,.105-.949c-.105-.316-.422-.527-.949-.527" transform="translate(1.276 -0.702)" fill="#d5d5d5"/><path d="M57.352,13.2a.8.8,0,0,0,.738-.422.991.991,0,0,0,.105-.949,1.107,1.107,0,0,0-.949-.527.8.8,0,0,0-.738.422,1.025,1.025,0,0,0-.105.949,1.107,1.107,0,0,0,.949.527" transform="translate(1.476 -0.968)" fill="#d5d5d5"/><path d="M59.352,10.4a.8.8,0,0,0,.738-.422,1.025,1.025,0,0,0,.105-.949,1.107,1.107,0,0,0-.949-.527.8.8,0,0,0-.738.422,1.025,1.025,0,0,0-.105.949,1.107,1.107,0,0,0,.949.527" transform="translate(1.584 -1.12)" fill="#d5d5d5"/><path d="M49.908,16.323a.791.791,0,0,0,0,.949,1.075,1.075,0,0,0,.843.527.888.888,0,0,0,.738-.422.791.791,0,0,0,0-.949,1.075,1.075,0,0,0-.843-.527.6.6,0,0,0-.738.422" transform="translate(1.119 -0.72)" fill="#d5d5d5"/><path d="M50.295,19.371a.791.791,0,0,0,0-.949A1.028,1.028,0,0,0,49.346,18a.888.888,0,0,0-.738.422.791.791,0,0,0,0,.949,1.075,1.075,0,0,0,.843.527.939.939,0,0,0,.843-.527" transform="translate(1.048 -0.605)" fill="#d5d5d5"/><path d="M49.19,21.276a.791.791,0,0,0,0-.949,1.075,1.075,0,0,0-.843-.527.888.888,0,0,0-.738.422.791.791,0,0,0,0,.949,1.075,1.075,0,0,0,.843.527c.211.105.527-.105.738-.422" transform="translate(0.994 -0.507)" fill="#d5d5d5"/><path d="M52.808,11.323a.791.791,0,0,0,0,.949,1.075,1.075,0,0,0,.843.527.888.888,0,0,0,.738-.422.791.791,0,0,0,0-.949,1.075,1.075,0,0,0-.843-.527c-.211-.105-.527.105-.738.422" transform="translate(1.276 -0.991)" fill="#d5d5d5"/><path d="M52.046,13.5a.888.888,0,0,0-.738.422.791.791,0,0,0,0,.949,1.075,1.075,0,0,0,.843.527.888.888,0,0,0,.738-.422.791.791,0,0,0,0-.949.835.835,0,0,0-.843-.527" transform="translate(1.195 -0.849)" fill="#d5d5d5"/><path d="M55.455,9.8a.888.888,0,0,0,.738-.422.791.791,0,0,0,0-.949,1.107,1.107,0,0,0-.949-.527.888.888,0,0,0-.738.422,1.008,1.008,0,0,0,0,.949,1.107,1.107,0,0,0,.949.527" transform="translate(1.37 -1.153)" fill="#d5d5d5"/><path d="M47.352,23.5a.888.888,0,0,0,.738-.422.791.791,0,0,0,0-.949,1.075,1.075,0,0,0-.843-.527.888.888,0,0,0-.738.422.638.638,0,0,0,0,.843.989.989,0,0,0,.843.633" transform="translate(0.934 -0.409)" fill="#d5d5d5"/><path d="M47.008,16.327a.638.638,0,0,0,0,.843.959.959,0,0,0,.843.422.939.939,0,0,0,.843-.527,1.155,1.155,0,0,0,0-.843.959.959,0,0,0-.843-.422.835.835,0,0,0-.843.527" transform="translate(0.961 -0.724)" fill="#d5d5d5"/><path d="M46.008,18.527a.638.638,0,0,0,0,.843.959.959,0,0,0,.843.422.939.939,0,0,0,.843-.527,1.155,1.155,0,0,0,0-.843A.959.959,0,0,0,46.852,18a.835.835,0,0,0-.843.527" transform="translate(0.907 -0.605)" fill="#d5d5d5"/><path d="M46.05,21.7a.793.793,0,0,0,.738-.527,1.008,1.008,0,0,0,0-.949.959.959,0,0,0-.843-.422.793.793,0,0,0-.738.527,1.008,1.008,0,0,0,0,.949.959.959,0,0,0,.843.422" transform="translate(0.865 -0.507)" fill="#d5d5d5"/><path d="M49.308,11.427a.641.641,0,0,0,0,.843.959.959,0,0,0,.843.422.939.939,0,0,0,.843-.527,1.155,1.155,0,0,0,0-.843.959.959,0,0,0-.843-.422.835.835,0,0,0-.843.527" transform="translate(1.086 -0.99)" fill="#d5d5d5"/><path d="M48.952,13.5a1.075,1.075,0,0,0-.843.527.638.638,0,0,0,0,.843.959.959,0,0,0,.843.422.939.939,0,0,0,.843-.527,1.155,1.155,0,0,0,0-.843.959.959,0,0,0-.843-.422" transform="translate(1.021 -0.849)" fill="#d5d5d5"/><path d="M51.544,9.792a1.075,1.075,0,0,0,.843-.527,1.155,1.155,0,0,0,0-.843A.959.959,0,0,0,51.544,8a.793.793,0,0,0-.738.527,1.008,1.008,0,0,0,0,.949,1.205,1.205,0,0,0,.738.316" transform="translate(1.169 -1.147)" fill="#d5d5d5"/><path d="M52.946,6.592a1.075,1.075,0,0,0,.843-.527,1.155,1.155,0,0,0,0-.843.959.959,0,0,0-.843-.422.793.793,0,0,0-.738.527c-.105.316-.211.527-.105.738a1.075,1.075,0,0,0,.843.527" transform="translate(1.244 -1.321)" fill="#d5d5d5"/><path d="M45.947,13.7a.8.8,0,0,0-.843.633.825.825,0,0,0,.105.843.959.959,0,0,0,.843.422.8.8,0,0,0,.843-.633.825.825,0,0,0-.105-.843.959.959,0,0,0-.843-.422" transform="translate(0.863 -0.838)" fill="#d5d5d5"/><path d="M44.3,16.633a.825.825,0,0,0,.105.843,1.3,1.3,0,0,0,.843.422,1.075,1.075,0,0,0,.843-.527,1.025,1.025,0,0,0-.105-.949A1.3,1.3,0,0,0,45.147,16a1.047,1.047,0,0,0-.843.633" transform="translate(0.819 -0.713)" fill="#d5d5d5"/><path d="M45.4,19.365a.825.825,0,0,0-.105-.843.959.959,0,0,0-.843-.422.95.95,0,0,0-.738,1.476,1.3,1.3,0,0,0,.843.422.8.8,0,0,0,.843-.633" transform="translate(0.781 -0.599)" fill="#d5d5d5"/><path d="M47.852,10.1a.8.8,0,0,0,.843-.633.8.8,0,0,0-.105-.843,1.3,1.3,0,0,0-.843-.422.8.8,0,0,0-.843.633.825.825,0,0,0,.105.843,1.3,1.3,0,0,0,.843.422" transform="translate(0.96 -1.136)" fill="#d5d5d5"/><path d="M45.9,11.733a.8.8,0,0,0,.105.843.959.959,0,0,0,.843.422,1.075,1.075,0,0,0,.843-.527,1.463,1.463,0,0,0,0-.949,1.3,1.3,0,0,0-.843-.422,1.013,1.013,0,0,0-.949.633" transform="translate(0.906 -0.979)" fill="#d5d5d5"/><path d="M48.952,6.9a1.075,1.075,0,0,0,.843-.527,1.025,1.025,0,0,0-.105-.949A1.3,1.3,0,0,0,48.847,5,.8.8,0,0,0,48,5.633a.8.8,0,0,0,.105.843.959.959,0,0,0,.843.422" transform="translate(1.02 -1.31)" fill="#d5d5d5"/><path d="M43.952,21.9a.8.8,0,0,0,.843-.633.825.825,0,0,0-.105-.843A.959.959,0,0,0,43.847,20a.8.8,0,0,0-.843.633.825.825,0,0,0,.105.843.959.959,0,0,0,.843.422" transform="translate(0.749 -0.496)" fill="#d5d5d5"/><path d="M43.256,16.1a1.075,1.075,0,0,0,.843-.527,1.025,1.025,0,0,0-.105-.949,2.119,2.119,0,0,0-.843-.422,1.013,1.013,0,0,0-.949.738.652.652,0,0,0,.211.738.959.959,0,0,0,.843.422" transform="translate(0.707 -0.811)" fill="#d5d5d5"/><path d="M41.7,17.338a.652.652,0,0,0,.211.738,1.2,1.2,0,0,0,.843.316,1.013,1.013,0,0,0,.949-.738.652.652,0,0,0-.211-.738,1.2,1.2,0,0,0-.843-.316,1.013,1.013,0,0,0-.949.738" transform="translate(0.68 -0.68)" fill="#d5d5d5"/><path d="M41.3,19.338a.652.652,0,0,0,.211.738,1.3,1.3,0,0,0,.843.422.815.815,0,0,0,.843-.738.652.652,0,0,0-.211-.738,1.3,1.3,0,0,0-.843-.422.9.9,0,0,0-.843.738" transform="translate(0.658 -0.572)" fill="#d5d5d5"/><path d="M44.451,10.792a1.013,1.013,0,0,0,.949-.738.652.652,0,0,0-.211-.738A1.2,1.2,0,0,0,44.346,9a.815.815,0,0,0-.843.738.652.652,0,0,0,.211.738.821.821,0,0,0,.738.316" transform="translate(0.777 -1.093)" fill="#d5d5d5"/><path d="M43.852,13.6a1.013,1.013,0,0,0,.949-.738.652.652,0,0,0-.211-.738,1.3,1.3,0,0,0-.843-.422,1.075,1.075,0,0,0-.843.527,1.025,1.025,0,0,0,.105.949.959.959,0,0,0,.843.422" transform="translate(0.743 -0.946)" fill="#d5d5d5"/><path d="M45.156,7.7A.815.815,0,0,0,46,6.96a.652.652,0,0,0-.211-.738,1.3,1.3,0,0,0-.843-.422.815.815,0,0,0-.843.738.652.652,0,0,0,.211.738,1.3,1.3,0,0,0,.843.422" transform="translate(0.81 -1.267)" fill="#d5d5d5"/><path d="M45.756,4.392a.815.815,0,0,0,.843-.738.652.652,0,0,0-.211-.738,1.2,1.2,0,0,0-.843-.316.815.815,0,0,0-.843.738.652.652,0,0,0,.211.738,1.683,1.683,0,0,0,.843.316" transform="translate(0.842 -1.44)" fill="#d5d5d5"/><path d="M40.949,14.4a.923.923,0,0,0,.949-.843,1,1,0,0,0-.211-.738.957.957,0,0,0-.738-.316.923.923,0,0,0-.949.843,1,1,0,0,0,.211.738.957.957,0,0,0,.738.316" transform="translate(0.589 -0.903)" fill="#d5d5d5"/><path d="M40.649,16.9a.923.923,0,0,0,.949-.843,1,1,0,0,0-.211-.738A.957.957,0,0,0,40.649,15a.923.923,0,0,0-.949.843,1,1,0,0,0,.211.738,1.139,1.139,0,0,0,.738.316" transform="translate(0.573 -0.767)" fill="#d5d5d5"/><path d="M40.449,19.1a.923.923,0,0,0,.949-.843,1,1,0,0,0-.211-.738.957.957,0,0,0-.738-.316.923.923,0,0,0-.949.843,1,1,0,0,0,.211.738.957.957,0,0,0,.738.316" transform="translate(0.562 -0.648)" fill="#d5d5d5"/><path d="M41.549,8.7a.923.923,0,0,0,.949-.843,1,1,0,0,0-.211-.738,1.574,1.574,0,0,0-.738-.316.923.923,0,0,0-.949.843,1,1,0,0,0,.211.738,1.139,1.139,0,0,0,.738.316" transform="translate(0.622 -1.212)" fill="#d5d5d5"/><path d="M41.249,11.692a.939.939,0,0,0,.843-.527.991.991,0,0,0-.105-.949,1.139,1.139,0,0,0-.738-.316.923.923,0,0,0-.949.843,1,1,0,0,0,.211.738,1.524,1.524,0,0,0,.738.211" transform="translate(0.606 -1.044)" fill="#d5d5d5"/><path d="M41.949,5.392a.939.939,0,0,0,.843-.527.991.991,0,0,0-.105-.949,1.139,1.139,0,0,0-.738-.316A.923.923,0,0,0,41,4.443a1,1,0,0,0,.211.738,1.229,1.229,0,0,0,.738.211" transform="translate(0.644 -1.386)" fill="#d5d5d5"/><path d="M39.513,20.781a.957.957,0,0,0,.738.316.923.923,0,0,0,.949-.843,1,1,0,0,0-.211-.738.957.957,0,0,0-.738-.316.923.923,0,0,0-.949.843.7.7,0,0,0,.211.738" transform="translate(0.549 -0.539)" fill="#d5d5d5"/><path d="M38.354,15.592a1.13,1.13,0,0,0,.633-.211.911.911,0,0,0,.316-.633,1.13,1.13,0,0,0-.211-.633.957.957,0,0,0-.738-.316,1.107,1.107,0,0,0-.949.527.839.839,0,0,0,.211,1.054,1.524,1.524,0,0,0,.738.211" transform="translate(0.443 -0.832)" fill="#d5d5d5"/><path d="M38.354,17.888a1.13,1.13,0,0,0,.633-.211.911.911,0,0,0,.316-.633.751.751,0,0,0-.316-.633c-.211-.105-.422-.316-.738-.211a1.13,1.13,0,0,0-.633.211,1.2,1.2,0,0,0-.316.633,1.13,1.13,0,0,0,.211.633,2.481,2.481,0,0,0,.843.211" transform="translate(0.443 -0.704)" fill="#d5d5d5"/><path d="M38.349,19.992a1.13,1.13,0,0,0,.633-.211.911.911,0,0,0,.316-.633,1.5,1.5,0,0,0-.211-.633.957.957,0,0,0-.738-.316,1.13,1.13,0,0,0-.633.211.911.911,0,0,0-.316.633,1.13,1.13,0,0,0,.211.633.957.957,0,0,0,.738.316" transform="translate(0.448 -0.594)" fill="#d5d5d5"/><path d="M38.354,10.1a1.107,1.107,0,0,0,.949-.527.839.839,0,0,0-.211-1.054.957.957,0,0,0-.738-.316,1.107,1.107,0,0,0-.949.527.839.839,0,0,0,.211,1.054,1.139,1.139,0,0,0,.738.316" transform="translate(0.443 -1.136)" fill="#d5d5d5"/><path d="M38.349,12.992a1.13,1.13,0,0,0,.633-.211,1.2,1.2,0,0,0,.316-.633,1.5,1.5,0,0,0-.211-.633.957.957,0,0,0-.738-.316,1.13,1.13,0,0,0-.633.211,1.2,1.2,0,0,0-.316.633,1.5,1.5,0,0,0,.211.633,1.139,1.139,0,0,0,.738.316" transform="translate(0.448 -0.974)" fill="#d5d5d5"/><path d="M38.449,6.892a1.13,1.13,0,0,0,.633-.211.911.911,0,0,0,.316-.633,1.13,1.13,0,0,0-.211-.633.957.957,0,0,0-.738-.316,1.13,1.13,0,0,0-.633.211,1.2,1.2,0,0,0-.316.633,1.13,1.13,0,0,0,.211.633.957.957,0,0,0,.738.316" transform="translate(0.454 -1.305)" fill="#d5d5d5"/><path d="M38.449,3.4a1.107,1.107,0,0,0,.949-.527,1.007,1.007,0,0,0-.211-1.054.957.957,0,0,0-.738-.316,1.13,1.13,0,0,0-.633.211.911.911,0,0,0-.316.633,1.13,1.13,0,0,0,.211.633,1.7,1.7,0,0,0,.738.422" transform="translate(0.454 -1.5)" fill="#d5d5d5"/><path d="M54.851,20.7a.751.751,0,0,0,.633-.316,1.011,1.011,0,0,0,.211-.949,1.068,1.068,0,0,0-.949-.633.751.751,0,0,0-.633.316,1.011,1.011,0,0,0-.211.949,1.4,1.4,0,0,0,.949.633" transform="translate(1.342 -0.561)" fill="#d5d5d5"/><path d="M53.251,22.6a.751.751,0,0,0,.633-.316,1.011,1.011,0,0,0,.211-.949,1.068,1.068,0,0,0-.949-.633.751.751,0,0,0-.633.316,1.011,1.011,0,0,0-.211.949c.105.316.527.527.949.633" transform="translate(1.255 -0.458)" fill="#d5d5d5"/><path d="M52.384,23.881a1.011,1.011,0,0,0,.211-.949,1.068,1.068,0,0,0-.949-.633.751.751,0,0,0-.633.316,1.011,1.011,0,0,0-.211.949,1.212,1.212,0,0,0,.949.633.911.911,0,0,0,.633-.316" transform="translate(1.173 -0.371)" fill="#d5d5d5"/><path d="M58.851,16.5a.751.751,0,0,0,.633-.316,1.011,1.011,0,0,0,.211-.949,1.212,1.212,0,0,0-.949-.633.751.751,0,0,0-.633.316,1.011,1.011,0,0,0-.211.949,1.212,1.212,0,0,0,.949.633" transform="translate(1.559 -0.789)" fill="#d5d5d5"/><path d="M56.646,16.8a.751.751,0,0,0-.633.316,1.011,1.011,0,0,0-.211.949,1.068,1.068,0,0,0,.949.633.751.751,0,0,0,.633-.316,1.011,1.011,0,0,0,.211-.949,1.212,1.212,0,0,0-.949-.633" transform="translate(1.445 -0.67)" fill="#d5d5d5"/><path d="M60.206,13.365a1.212,1.212,0,0,0,.949.633.751.751,0,0,0,.633-.316A1.011,1.011,0,0,0,62,12.733a1.068,1.068,0,0,0-.949-.633.751.751,0,0,0-.633.316.687.687,0,0,0-.211.949" transform="translate(1.68 -0.925)" fill="#d5d5d5"/><path d="M50.351,25.7a.637.637,0,0,0,.633-.316,1.011,1.011,0,0,0,.211-.949,1.212,1.212,0,0,0-.949-.633.751.751,0,0,0-.633.316,1.011,1.011,0,0,0-.211.949,1.212,1.212,0,0,0,.949.633" transform="translate(1.097 -0.29)" fill="#d5d5d5"/><path d="M55.754,23.392a1.5,1.5,0,0,0,.633-.211.687.687,0,0,0,.211-.949.922.922,0,0,0-.949-.633,1.5,1.5,0,0,0-.633.211.687.687,0,0,0-.211.949,1.013,1.013,0,0,0,.949.633" transform="translate(1.387 -0.409)" fill="#d5d5d5"/><path d="M54.9,23.733a.922.922,0,0,0-.949-.633,1.5,1.5,0,0,0-.633.211.687.687,0,0,0-.211.949.922.922,0,0,0,.949.633,1.5,1.5,0,0,0,.633-.211.946.946,0,0,0,.211-.949" transform="translate(1.295 -0.328)" fill="#d5d5d5"/><path d="M52.454,26.392a1.5,1.5,0,0,0,.633-.211.687.687,0,0,0,.211-.949.922.922,0,0,0-.949-.633,1.5,1.5,0,0,0-.633.211.687.687,0,0,0-.211.949,1.068,1.068,0,0,0,.949.633" transform="translate(1.208 -0.246)" fill="#d5d5d5"/><path d="M60.7,18.533a.922.922,0,0,0-.949-.633,1.5,1.5,0,0,0-.633.211.687.687,0,0,0-.211.949.922.922,0,0,0,.949.633,1.5,1.5,0,0,0,.633-.211.946.946,0,0,0,.211-.949" transform="translate(1.61 -0.61)" fill="#d5d5d5"/><path d="M57.017,20.011a.687.687,0,0,0-.211.949.922.922,0,0,0,.949.633,1.5,1.5,0,0,0,.633-.211.687.687,0,0,0,.211-.949.922.922,0,0,0-.949-.633,1.5,1.5,0,0,0-.633.211" transform="translate(1.496 -0.507)" fill="#d5d5d5"/><path d="M62.249,15.7a1.5,1.5,0,0,0-.633.211.687.687,0,0,0-.211.949.922.922,0,0,0,.949.633,1.5,1.5,0,0,0,.633-.211.687.687,0,0,0,.211-.949,1.212,1.212,0,0,0-.949-.633" transform="translate(1.745 -0.729)" fill="#d5d5d5"/><path d="M64.754,15.492a1.5,1.5,0,0,0,.633-.211.687.687,0,0,0,.211-.949.922.922,0,0,0-.949-.633,1.5,1.5,0,0,0-.633.211.687.687,0,0,0-.211.949,1.9,1.9,0,0,0,.949.633" transform="translate(1.875 -0.838)" fill="#d5d5d5"/><path d="M87.706,42.557h4.112L84.648,25.9H81.169L74,42.663h4.006l1.476-3.69H86.23Zm-2.847-7.169h-3.9l2-4.744Z" transform="translate(2.435 -0.176)" fill="#d5d5d5"/><path d="M98.94,42.874a8.461,8.461,0,0,0,6.853-2.952l.105-.105-2.53-2.53-.105.105a5.835,5.835,0,0,1-4.217,1.9,4.548,4.548,0,0,1-3.374-1.476,4.756,4.756,0,0,1-1.265-3.479,4.679,4.679,0,0,1,4.639-4.85,5.5,5.5,0,0,1,4.112,1.792l.105.105,2.53-2.847-.105-.105a8.814,8.814,0,0,0-6.536-2.53,8.585,8.585,0,0,0-6.22,2.425A8.275,8.275,0,0,0,90.4,34.44a8.127,8.127,0,0,0,8.54,8.434" transform="translate(3.324 -0.176)" fill="#d5d5d5"/><path d="M114.34,42.874a8.461,8.461,0,0,0,6.853-2.952l.105-.105-2.53-2.53-.105.105a5.835,5.835,0,0,1-4.217,1.9,4.548,4.548,0,0,1-3.374-1.476,4.756,4.756,0,0,1-1.265-3.479,4.679,4.679,0,0,1,4.639-4.85,5.5,5.5,0,0,1,4.112,1.792l.105.105,2.53-2.847-.105-.105a8.424,8.424,0,0,0-6.536-2.53,8.585,8.585,0,0,0-6.22,2.425,8.275,8.275,0,0,0-2.53,6.115,8.127,8.127,0,0,0,8.54,8.434" transform="translate(4.16 -0.176)" fill="#d5d5d5"/><path d="M126.206,37.381h2.636l3.479,5.166h4.533l-4.112-5.9a5.224,5.224,0,0,0,3.479-5.061c0-3.479-2.425-5.482-6.326-5.482h-7.7V42.547h3.9V37.381Zm0-7.907h3.479c1.792,0,2.636.738,2.636,2.214,0,1.371-.949,2.109-2.636,2.109h-3.479Z" transform="translate(5.051 -0.165)" fill="#d5d5d5"/><path d="M150.462,39.073H141.5V35.91h7.8V32.431h-7.8V29.479h8.856V26H137.6V42.552h12.862Z" transform="translate(5.886 -0.17)" fill="#d5d5d5"/><path d="M158.436,26H151.9V42.553h6.536a8.4,8.4,0,0,0,6.22-2.214,8.315,8.315,0,0,0,2.636-6.009A8.469,8.469,0,0,0,158.436,26ZM155.8,29.585h2.636a4.238,4.238,0,0,1,3.479,1.265,4.854,4.854,0,0,1,1.371,3.479,4.454,4.454,0,0,1-1.371,3.479,4.363,4.363,0,0,1-3.479,1.265H155.8Z" transform="translate(6.662 -0.171)" fill="#d5d5d5"/><rect width="3.901" height="16.552" transform="translate(175.853 25.83)" fill="#d5d5d5"/><path d="M178.955,42.552h3.9V29.585h5.061V26H174v3.585h4.955Z" transform="translate(7.862 -0.17)" fill="#d5d5d5"/><path d="M192.8,35.91h7.8V32.431h-7.8V29.479h8.856V26H189V42.552h12.757V39.073H192.8Z" transform="translate(8.676 -0.17)" fill="#d5d5d5"/><path d="M209.836,26H203.3V42.553h6.536a8.4,8.4,0,0,0,6.22-2.214,8.315,8.315,0,0,0,2.636-6.009A8.469,8.469,0,0,0,209.836,26ZM207.2,29.585h2.636a4.238,4.238,0,0,1,3.479,1.265,4.454,4.454,0,0,1,1.371,3.479,4.454,4.454,0,0,1-1.371,3.479,4.363,4.363,0,0,1-3.479,1.265H207.2Z" transform="translate(9.452 -0.171)" fill="#d5d5d5"/><rect width="3.901" height="16.552" transform="translate(77.594 45.755)" fill="#d5d5d5"/><path d="M92.064,54.6l-7.38-9.7H81.1V61.452h3.8V51.436l7.8,10.016h3.268V44.9h-3.9Z" transform="translate(2.82 0.855)" fill="#d5d5d5"/><path d="M104.907,51.447c-2.847-.738-3.479-1.054-3.479-2,0-.738.738-1.265,2-1.265a7.675,7.675,0,0,1,4.217,1.581l.105.105,2-2.952-.105-.105a10.075,10.075,0,0,0-6.22-2.109c-3.479,0-5.9,2.109-5.9,5.061,0,3.479,2.425,4.323,5.588,5.166,2.741.738,3.268,1.16,3.268,1.9,0,.843-.843,1.371-2.214,1.371a6.707,6.707,0,0,1-4.744-2l-.105-.105L97,58.933l.105.105a10.65,10.65,0,0,0,7.064,2.636c3.8,0,6.22-2,6.22-5.166-.105-3.057-2.214-4.217-5.482-5.061" transform="translate(3.683 0.845)" fill="#d5d5d5"/><path d="M124.316,44.9H110.4v3.585h4.955V61.452h3.9V48.485h5.06Z" transform="translate(4.41 0.855)" fill="#d5d5d5"/><path d="M132.948,44.8h-3.585L122.3,61.247v.211h4.006l1.476-3.69h6.747l1.476,3.69h4.112L132.948,44.8Zm.105,9.7h-3.9l2-4.85Z" transform="translate(5.056 0.85)" fill="#d5d5d5"/><path d="M144.6,44.9h-3.9V61.452h12.019V57.973H144.6Z" transform="translate(6.055 0.855)" fill="#d5d5d5"/><path d="M157.8,44.9h-3.9V61.452h12.124V57.973H157.8Z" transform="translate(6.771 0.855)" fill="#d5d5d5"/><path d="M171,54.916h7.7V51.331H171V48.379h8.75V44.9H167.1V61.452h12.757V57.973H171Z" transform="translate(7.487 0.855)" fill="#d5d5d5"/><path d="M195.022,50.482C195.022,47,192.6,45,188.7,45H181V61.552h3.9V56.386h2.636l3.479,5.166h4.533l-4.112-5.9a5.181,5.181,0,0,0,3.585-5.166Zm-10.016-2h3.479c1.792,0,2.636.738,2.636,2.214,0,1.371-.949,2.214-2.636,2.214h-3.479Z" transform="translate(8.242 0.861)" fill="#d5d5d5"/><path d="M80.2,21.055a2.64,2.64,0,0,1-1.9.843,2.081,2.081,0,0,1-1.476-.633A1.637,1.637,0,0,1,76.3,19.79a2.519,2.519,0,0,1,.527-1.476,2.081,2.081,0,0,1,1.476-.633,2.252,2.252,0,0,1,1.792.843l1.054-1.265A4.141,4.141,0,0,0,78.2,16.1a3.734,3.734,0,0,0-2.741,1.054A3.828,3.828,0,0,0,74.3,19.9a4.215,4.215,0,0,0,1.054,2.741A3.734,3.734,0,0,0,78.1,23.691a3.8,3.8,0,0,0,3.057-1.371L80.2,21.055Z" transform="translate(2.451 -0.708)" fill="#686868"/><path d="M87.071,21.693H83.487V16H81.8v7.274h5.271Z" transform="translate(2.858 -0.713)" fill="#686868"/><path d="M93.293,21.8h-3.9V20.428h3.374V18.847H89.392V17.476h3.9V16H87.6v7.38h5.693Z" transform="translate(3.173 -0.713)" fill="#686868"/><path d="M96.036,21.7h2.952l.633,1.581h1.792L98.144,15.9H96.563L93.4,23.28h1.792Zm.633-1.581.843-2.109.843,2.109Z" transform="translate(3.488 -0.718)" fill="#686868"/><path d="M103.487,18.847l3.374,4.428h1.476V16H106.65v4.323L103.381,16H101.8v7.274h1.687Z" transform="translate(3.943 -0.713)" fill="#686868"/><path d="M117.388,17.476V16H111.8v7.38h5.588V21.8h-3.9V20.428h3.374V18.847h-3.374V17.476Z" transform="translate(4.486 -0.713)" fill="#686868"/><path d="M119.687,18.847l3.374,4.428h1.581V16H122.85v4.323L119.581,16H118v7.274h1.687Z" transform="translate(4.823 -0.713)" fill="#686868"/><path d="M130.993,17.476V16H125.3v7.38h5.693V21.8h-3.9V20.428h3.374V18.847h-3.374V17.476Z" transform="translate(5.219 -0.713)" fill="#686868"/><path d="M136.133,23.274h2l-1.792-2.636a2.152,2.152,0,0,0,1.476-2.214c0-1.581-1.054-2.425-2.847-2.425H131.6v7.38h1.792V21.061h1.054ZM133.5,17.581h1.476c.738,0,1.16.316,1.16.949s-.422.949-1.16.949h-1.581v-1.9Z" transform="translate(5.561 -0.713)" fill="#686868"/><path d="M142.106,23.492a4.868,4.868,0,0,0,3.163-1.16V19.064H142V20.54h1.581v.949a2.42,2.42,0,0,1-1.476.422,2.146,2.146,0,0,1-1.581-.633A1.74,1.74,0,0,1,140,19.7a2.19,2.19,0,0,1,2-2.214,2.312,2.312,0,0,1,1.792.738l1.054-1.371A3.624,3.624,0,0,0,142,15.9a3.734,3.734,0,0,0-2.741,1.054,3.819,3.819,0,0,0,0,5.482,4.156,4.156,0,0,0,2.847,1.054" transform="translate(5.914 -0.72)" fill="#686868"/><path d="M149.533,23.274V20.428L152.38,16h-2l-1.687,2.847L147,16h-2l2.847,4.428v2.847Z" transform="translate(6.288 -0.713)" fill="#686868"/><path d="M160.1,21.055a2.64,2.64,0,0,1-1.9.843,2.081,2.081,0,0,1-1.476-.633,1.637,1.637,0,0,1-.527-1.476,2.519,2.519,0,0,1,.527-1.476,2.081,2.081,0,0,1,1.476-.633,2.252,2.252,0,0,1,1.792.843l1.054-1.265A4.141,4.141,0,0,0,158.1,16.1a3.734,3.734,0,0,0-2.741,1.054A3.828,3.828,0,0,0,154.2,19.9a4.215,4.215,0,0,0,1.054,2.741A3.734,3.734,0,0,0,158,23.691a3.8,3.8,0,0,0,3.057-1.371l-.949-1.265Z" transform="translate(6.787 -0.708)" fill="#686868"/><path d="M165,15.9a3.734,3.734,0,0,0-2.741,1.054,3.819,3.819,0,0,0,0,5.482A3.9,3.9,0,0,0,165,23.492a4.215,4.215,0,0,0,2.741-1.054,3.819,3.819,0,0,0,0-5.482A3.361,3.361,0,0,0,165,15.9Zm-2.109,3.69a2.109,2.109,0,1,1,4.217,0,1.914,1.914,0,0,1-.633,1.476A2.082,2.082,0,0,1,165,21.7a2.146,2.146,0,0,1-1.581-.633,2.285,2.285,0,0,1-.527-1.476Z" transform="translate(7.162 -0.719)" fill="#686868"/><path d="M173.945,20.217c0,1.054-.527,1.581-1.476,1.581s-1.476-.633-1.476-1.687V16H169.2v4.217a3.01,3.01,0,0,0,.843,2.425,3.907,3.907,0,0,0,4.85,0,3.01,3.01,0,0,0,.843-2.425V16h-1.792Z" transform="translate(7.6 -0.713)" fill="#686868"/><path d="M181.355,20.323,177.981,16H176.4v7.274h1.792V18.847l3.374,4.428h1.476V16h-1.687Z" transform="translate(7.992 -0.713)" fill="#686868"/><path d="M189.2,21.055a2.469,2.469,0,0,1-1.9.843,2.081,2.081,0,0,1-1.476-.633,1.637,1.637,0,0,1-.527-1.476,2.519,2.519,0,0,1,.527-1.476,2.081,2.081,0,0,1,1.476-.633,2.252,2.252,0,0,1,1.792.843l1.054-1.265A4.141,4.141,0,0,0,187.2,16.1a3.734,3.734,0,0,0-2.741,1.054A3.828,3.828,0,0,0,183.3,19.9a3.989,3.989,0,0,0,2.53,3.585,3.948,3.948,0,0,0,4.217-1.054l-.843-1.371Z" transform="translate(8.367 -0.708)" fill="#686868"/><rect width="1.792" height="7.38" transform="translate(199.363 15.287)" fill="#686868"/><path d="M195.092,21.693V16H193.3v7.274h5.377V21.693Z" transform="translate(8.909 -0.713)" fill="#686868"/></g></g></g></g></svg>