<svg id="Layer_1" data-name="Layer 1" xmlns="http://www.w3.org/2000/svg" viewBox="0 0 50 50"><path d="M41.19,9.2a6.51,6.51,0,0,1,4.64,2,8.18,8.18,0,0,1,1.84,4.6,62,62,0,0,1,.46,7.48v3.52a62,62,0,0,1-.46,7.48,8.28,8.28,0,0,1-1.84,4.6,6.57,6.57,0,0,1-4.64,1.93s-6.46.5-16.19.5c-12-.11-15.72-.47-15.72-.47-1-.18-3.36-.13-5.11-2a8.28,8.28,0,0,1-1.84-4.6,62,62,0,0,1-.46-7.48V23.24a62,62,0,0,1,.46-7.48,8.18,8.18,0,0,1,1.84-4.6,6.51,6.51,0,0,1,4.64-2S15.27,8.73,25,8.73,41.19,9.2,41.19,9.2ZM32.72,24.54,20.22,18V31Z"/></svg>