<svg xmlns="http://www.w3.org/2000/svg" width="25" height="71.372" viewBox="0 0 25 71.372"><g transform="translate(-12 -3.814)"><path d="M25,17.28H24a12,12,0,0,0-12,12V49.72a12,12,0,0,0,12,12h1a12,12,0,0,0,12-12V29.28a12,12,0,0,0-12-12ZM35,49.72a10,10,0,0,1-10,10H24a10,10,0,0,1-10-10V29.28a10,10,0,0,1,10-10h1a10,10,0,0,1,10,10Z"/><path d="M24.5,23.38a1,1,0,0,0-1,1v5.7a1,1,0,1,0,2,0v-5.7a1,1,0,0,0-1-1Z"/><path d="M31.05,66.22,24.5,72.77l-6.67-6.66a1,1,0,0,0-1.41,1.41l7.37,7.37a1,1,0,0,0,1.42,0l7.26-7.26a1,1,0,1,0-1.42-1.41Z"/><path d="M17.13,13.19a1,1,0,0,0,.7-.3L24.5,6.23l6.55,6.55a1,1,0,0,0,1.42-1.41L25.21,4.11a1,1,0,0,0-1.42,0l-7.37,7.37a1,1,0,0,0,.71,1.71Z"/></g></svg>