<svg id="Layer_1" data-name="Layer 1" xmlns="http://www.w3.org/2000/svg" viewBox="0 0 50 50"><path d="M41.16,16.71c0,.36,0,.73,0,1.09,0,11-8.39,23.72-23.73,23.72a23.51,23.51,0,0,1-12.8-3.74,16.6,16.6,0,0,0,2,.1A16.65,16.65,0,0,0,17,34.32a8.35,8.35,0,0,1-7.79-5.78,11.46,11.46,0,0,0,1.57.13A8.76,8.76,0,0,0,13,28.38,8.33,8.33,0,0,1,6.31,20.2v-.11a8.37,8.37,0,0,0,3.77,1.06,8.31,8.31,0,0,1-3.72-6.94A8.22,8.22,0,0,1,7.5,10a23.72,23.72,0,0,0,17.19,8.73,9.39,9.39,0,0,1-.21-1.91,8.35,8.35,0,0,1,14.44-5.71,16.52,16.52,0,0,0,5.29-2,8.32,8.32,0,0,1-3.67,4.59,16.46,16.46,0,0,0,4.8-1.29A17.82,17.82,0,0,1,41.16,16.71Z"/></svg>