<svg id="Layer_1" data-name="Layer 1" xmlns="http://www.w3.org/2000/svg" viewBox="0 0 50 50"><path d="M42.38,39.12c-.55,1.27-2,2.09-3.15,2.74a9.88,9.88,0,0,1-4.81,1.32c-2.4,0-4.57-1-6.76-1.79a23.37,23.37,0,0,1-4.52-2.14A43.52,43.52,0,0,1,10.75,26.86a23.37,23.37,0,0,1-2.14-4.52c-.8-2.19-1.79-4.36-1.79-6.76a9.88,9.88,0,0,1,1.32-4.81c.65-1.16,1.47-2.6,2.74-3.15a11.69,11.69,0,0,1,3.59-.8A1.27,1.27,0,0,1,15,6.9c.54.18,1.11,1.45,1.37,2,.82,1.48,1.62,3,2.48,4.42.41.67,1.18,1.5,1.18,2.3,0,1.57-4.67,3.87-4.67,5.26a5.56,5.56,0,0,0,1,2.22A25.59,25.59,0,0,0,26.94,33.62a5.56,5.56,0,0,0,2.22,1c1.39,0,3.69-4.67,5.26-4.67.8,0,1.63.77,2.3,1.18,1.45.86,2.94,1.66,4.42,2.48.51.26,1.78.83,2,1.37a1.27,1.27,0,0,1,.08.54A11.69,11.69,0,0,1,42.38,39.12Z"/></svg>