<svg xmlns="http://www.w3.org/2000/svg" xmlns:xlink="http://www.w3.org/1999/xlink" width="190.732" height="182.57" viewBox="0 0 190.732 182.57"><defs><linearGradient id="a" y1="0.5" x2="1" y2="0.5" gradientUnits="objectBoundingBox"><stop offset="0" stop-color="#c4952f"/><stop offset="0.146" stop-color="#b8871c"/><stop offset="0.28" stop-color="#b17e10"/><stop offset="0.319" stop-color="#b68518"/><stop offset="0.381" stop-color="#c69a31"/><stop offset="0.459" stop-color="#dfbd58"/><stop offset="0.518" stop-color="#f6db7b"/><stop offset="0.84" stop-color="#b17e10"/><stop offset="0.948" stop-color="#e1bf5b"/><stop offset="1" stop-color="#f6db7b"/></linearGradient></defs><g transform="translate(805.56 -49.94)"><path d="M-614.828,141.225c0,9.713-11.941,17.419-14.786,26.183-2.95,9.084,2.078,22.317-3.424,29.878-5.557,7.636-19.734,6.916-27.37,12.473-7.561,5.5-11.226,19.238-20.309,22.187-8.764,2.846-19.764-6.019-29.477-6.019s-20.713,8.865-29.477,6.019c-9.083-2.949-12.749-16.685-20.309-22.187-7.636-5.558-21.813-4.838-27.37-12.474-5.5-7.56-.474-20.794-3.423-29.877-2.846-8.764-14.787-16.471-14.787-26.183s11.941-17.42,14.787-26.184c2.949-9.083-2.079-22.317,3.423-29.877,5.558-7.636,19.735-6.916,27.371-12.474,7.56-5.5,11.226-19.238,20.309-22.187,8.764-2.846,19.764,6.019,29.476,6.019s20.713-8.864,29.477-6.019c9.083,2.95,12.749,16.686,20.309,22.188,7.636,5.557,21.813,4.838,27.371,12.473,5.5,7.561.473,20.795,3.423,29.878C-626.769,123.805-614.828,131.512-614.828,141.225Z" fill="url(#a)"/><path d="M-629.518,141.225c0,8.216-10.1,14.736-12.509,22.15-2.495,7.684,1.759,18.88-2.9,25.275-4.7,6.46-16.694,5.851-23.154,10.552-6.4,4.655-9.5,16.275-17.181,18.77-7.414,2.407-16.719-5.092-24.936-5.092s-17.522,7.5-24.936,5.092c-7.684-2.495-10.785-14.115-17.181-18.77-6.46-4.7-18.453-4.092-23.154-10.552-4.655-6.4-.4-17.591-2.9-25.275-2.407-7.414-12.509-13.934-12.509-22.15s10.1-14.737,12.509-22.151c2.495-7.684-1.759-18.879,2.9-25.275,4.7-6.46,16.7-5.851,23.154-10.552,6.4-4.655,9.5-16.275,17.181-18.77,7.414-2.407,16.72,5.092,24.936,5.092s17.523-7.5,24.937-5.092c7.684,2.5,10.785,14.116,17.181,18.771,6.459,4.7,18.453,4.092,23.154,10.552,4.654,6.4.4,17.591,2.9,25.275C-639.619,126.489-629.518,133.008-629.518,141.225Z" fill="#333"/><circle cx="64.306" cy="64.306" r="64.306" transform="translate(-774.5 76.918)" fill="url(#a)"/><circle cx="58.694" cy="58.694" r="58.694" transform="matrix(0.157, -0.988, 0.988, 0.157, -777.39, 190.102)" fill="none" stroke="#2b2d2c" stroke-miterlimit="10" stroke-width="1"/><path d="M-742,121.693v22.222h-6.286V126.55h-4.127v-4.857Z" fill="#333"/><path d="M-733.939,142.994a9.187,9.187,0,0,1-3.477-3.984,14.258,14.258,0,0,1-1.253-6.206,14.26,14.26,0,0,1,1.253-6.207,9.192,9.192,0,0,1,3.477-3.984,9.515,9.515,0,0,1,5.079-1.365,9.456,9.456,0,0,1,5.048,1.365,9.2,9.2,0,0,1,3.476,3.984,14.245,14.245,0,0,1,1.253,6.207,14.243,14.243,0,0,1-1.253,6.206,9.191,9.191,0,0,1-3.476,3.984,9.447,9.447,0,0,1-5.048,1.365A9.506,9.506,0,0,1-733.939,142.994Zm7.6-5.317a9.707,9.707,0,0,0,.936-4.873,9.707,9.707,0,0,0-.936-4.873,2.845,2.845,0,0,0-2.524-1.54,2.869,2.869,0,0,0-2.556,1.54,9.708,9.708,0,0,0-.936,4.873,9.708,9.708,0,0,0,.936,4.873,2.87,2.87,0,0,0,2.556,1.539A2.846,2.846,0,0,0-726.336,137.677Z" fill="#333"/><path d="M-712.194,142.994a9.184,9.184,0,0,1-3.476-3.984,14.243,14.243,0,0,1-1.254-6.206,14.244,14.244,0,0,1,1.254-6.207,9.19,9.19,0,0,1,3.476-3.984,9.517,9.517,0,0,1,5.079-1.365,9.456,9.456,0,0,1,5.048,1.365,9.19,9.19,0,0,1,3.476,3.984,14.244,14.244,0,0,1,1.254,6.207,14.243,14.243,0,0,1-1.254,6.206,9.184,9.184,0,0,1-3.476,3.984,9.447,9.447,0,0,1-5.048,1.365A9.508,9.508,0,0,1-712.194,142.994Zm7.6-5.317a9.707,9.707,0,0,0,.936-4.873,9.707,9.707,0,0,0-.936-4.873,2.845,2.845,0,0,0-2.524-1.54,2.868,2.868,0,0,0-2.555,1.54,9.706,9.706,0,0,0-.937,4.873,9.706,9.706,0,0,0,.937,4.873,2.869,2.869,0,0,0,2.555,1.539A2.846,2.846,0,0,0-704.591,137.677Z" fill="#333"/><path d="M-693.972,132.074a6.232,6.232,0,0,1-1.588-4.509,6.961,6.961,0,0,1,.73-3.269,5.2,5.2,0,0,1,2.016-2.143,5.747,5.747,0,0,1,2.937-.746,5.44,5.44,0,0,1,4.127,1.667,6.247,6.247,0,0,1,1.586,4.491,6.24,6.24,0,0,1-1.586,4.509,5.471,5.471,0,0,1-4.127,1.65A5.428,5.428,0,0,1-693.972,132.074Zm17.237-10.381h4.571l-15.173,22.222h-4.572Zm-11.777,8.254a4.386,4.386,0,0,0,.508-2.382,4.378,4.378,0,0,0-.508-2.38,1.567,1.567,0,0,0-1.365-.762,1.572,1.572,0,0,0-1.35.778,4.28,4.28,0,0,0-.523,2.364,4.285,4.285,0,0,0,.523,2.366,1.571,1.571,0,0,0,1.35.777A1.566,1.566,0,0,0-688.512,129.947Zm10.206,12.6a6.266,6.266,0,0,1-1.571-4.507,6.243,6.243,0,0,1,1.586-4.492,5.4,5.4,0,0,1,4.1-1.667,5.438,5.438,0,0,1,4.127,1.667,6.244,6.244,0,0,1,1.587,4.492,6.231,6.231,0,0,1-1.587,4.507A5.466,5.466,0,0,1-674.2,144.2,5.416,5.416,0,0,1-678.306,142.549Zm5.475-2.127a4.366,4.366,0,0,0,.509-2.38,4.368,4.368,0,0,0-.509-2.381,1.563,1.563,0,0,0-1.364-.762,1.565,1.565,0,0,0-1.365.762,4.369,4.369,0,0,0-.508,2.381,4.367,4.367,0,0,0,.508,2.38,1.564,1.564,0,0,0,1.365.763A1.562,1.562,0,0,0-672.831,140.422Z" fill="#333"/><path d="M-747.1,167.73h2.333v3.37a5.423,5.423,0,0,1-1.639.752,6.79,6.79,0,0,1-1.833.261,4.863,4.863,0,0,1-2.288-.529,3.951,3.951,0,0,1-1.588-1.48,4.087,4.087,0,0,1-.575-2.157,4.087,4.087,0,0,1,.575-2.157,3.927,3.927,0,0,1,1.605-1.48,5.02,5.02,0,0,1,2.328-.53,5.346,5.346,0,0,1,2.1.393,3.948,3.948,0,0,1,1.542,1.144l-1.719,1.514a2.285,2.285,0,0,0-1.787-.876,1.881,1.881,0,0,0-1.411.535,1.99,1.99,0,0,0-.525,1.457,2.015,2.015,0,0,0,.519,1.446,1.813,1.813,0,0,0,1.383.546,2.536,2.536,0,0,0,.979-.193Z" fill="#333"/><path d="M-742.665,171.123a3.683,3.683,0,0,1-1.024-2.778v-4.383H-741v4.3a2.071,2.071,0,0,0,.312,1.275,1.085,1.085,0,0,0,.905.4,1.086,1.086,0,0,0,.906-.4,2.078,2.078,0,0,0,.312-1.275v-4.3h2.642v4.383a3.68,3.68,0,0,1-1.026,2.778,3.936,3.936,0,0,1-2.856.99A3.941,3.941,0,0,1-742.665,171.123Z" fill="#333"/><path d="M-729.437,170.542h-3.028l-.535,1.389h-2.732l3.483-7.969h2.641l3.483,7.969H-728.9Zm-.74-1.935-.775-2-.773,2Z" fill="#333"/><path d="M-722.277,169.928h-.729v2h-2.687v-7.969h3.837a4.7,4.7,0,0,1,1.924.365,2.841,2.841,0,0,1,1.264,1.047,2.868,2.868,0,0,1,.443,1.594,2.817,2.817,0,0,1-.387,1.491,2.732,2.732,0,0,1-1.115,1.013l1.673,2.459h-2.868Zm1.069-3.649a1.193,1.193,0,0,0-.819-.245h-.979V167.9h.979a1.193,1.193,0,0,0,.819-.244.875.875,0,0,0,.274-.689A.875.875,0,0,0-721.208,166.279Z" fill="#333"/><path d="M-711.782,170.542h-3.028l-.535,1.389h-2.732l3.484-7.969h2.64l3.484,7.969h-2.778Zm-.74-1.935-.774-2-.774,2Z" fill="#333"/><path d="M-700.182,163.962v7.969h-2.209l-3.027-3.62v3.62h-2.62v-7.969h2.209l3.029,3.621v-3.621Z" fill="#333"/><path d="M-697.155,166.046h-2.333v-2.084h7.354v2.084h-2.334v5.885h-2.687Z" fill="#333"/><path d="M-684.814,169.9v2.026h-6.626v-7.969h6.478v2.027H-688.8v.933h3.369v1.935H-688.8V169.9Z" fill="#333"/><path d="M-677.153,169.9v2.026h-6.626v-7.969h6.478v2.027h-3.836v.933h3.369v1.935h-3.369V169.9Z" fill="#333"/><path d="M-676.118,163.962h3.928a5.429,5.429,0,0,1,2.351.484,3.688,3.688,0,0,1,1.583,1.384,3.908,3.908,0,0,1,.563,2.117,3.908,3.908,0,0,1-.563,2.117,3.68,3.68,0,0,1-1.583,1.383,5.414,5.414,0,0,1-2.351.484h-3.928Zm3.815,5.874a1.921,1.921,0,0,0,1.383-.495,1.842,1.842,0,0,0,.517-1.394,1.844,1.844,0,0,0-.517-1.4,1.921,1.921,0,0,0-1.383-.495h-1.128v3.779Z" fill="#333"/><path d="M-755.542,151.649a1.548,1.548,0,0,0-.845.21.7.7,0,0,0-.33.635.737.737,0,0,0,.33.65,4.972,4.972,0,0,0,1.4.485,3.846,3.846,0,0,1,1.62.73,1.73,1.73,0,0,1,.545,1.385,1.834,1.834,0,0,1-.689,1.485,2.752,2.752,0,0,1-1.811.57,4.25,4.25,0,0,1-2.909-1.13l.739-.89a3.336,3.336,0,0,0,2.2.92,1.509,1.509,0,0,0,.906-.245.767.767,0,0,0,.335-.65.731.731,0,0,0-.316-.63,3.3,3.3,0,0,0-1.085-.41,9.85,9.85,0,0,1-1.17-.34,2.668,2.668,0,0,1-.71-.4,1.691,1.691,0,0,1-.62-1.44,1.755,1.755,0,0,1,.705-1.495,2.843,2.843,0,0,1,1.745-.525,4.182,4.182,0,0,1,1.331.22,3.443,3.443,0,0,1,1.139.62l-.63.89a2.365,2.365,0,0,0-.84-.46A3.23,3.23,0,0,0-755.542,151.649Z" fill="#333"/><path d="M-748.438,156.129l-.7,1.59h-1.26l3.08-6.99h1.26l3.08,6.99h-1.26l-.7-1.59Zm3.021-1.09-1.271-2.88-1.27,2.88Z" fill="#333"/><path d="M-737.917,151.809v5.91H-739.1v-5.91h-2.12v-1.08h5.421v1.08Z" fill="#333"/><path d="M-732.518,150.729h1.181v6.99h-1.181Z" fill="#333"/><path d="M-725.283,151.649a1.544,1.544,0,0,0-.844.21.7.7,0,0,0-.331.635.737.737,0,0,0,.331.65,4.959,4.959,0,0,0,1.4.485,3.846,3.846,0,0,1,1.62.73,1.729,1.729,0,0,1,.545,1.385,1.835,1.835,0,0,1-.69,1.485,2.75,2.75,0,0,1-1.81.57,4.249,4.249,0,0,1-2.909-1.13l.739-.89a3.334,3.334,0,0,0,2.2.92,1.5,1.5,0,0,0,.905-.245.765.765,0,0,0,.335-.65.73.73,0,0,0-.315-.63,3.3,3.3,0,0,0-1.085-.41,9.794,9.794,0,0,1-1.17-.34,2.651,2.651,0,0,1-.71-.4,1.691,1.691,0,0,1-.62-1.44,1.752,1.752,0,0,1,.705-1.495,2.842,2.842,0,0,1,1.745-.525,4.176,4.176,0,0,1,1.33.22,3.438,3.438,0,0,1,1.14.62l-.63.89a2.365,2.365,0,0,0-.84-.46A3.232,3.232,0,0,0-725.283,151.649Z" fill="#333"/><path d="M-717.917,151.829v1.92h3.1v1.09h-3.1v2.88H-719.1v-6.99h4.66l-.01,1.1Z" fill="#333"/><path d="M-710.5,156.129l-.7,1.59h-1.26l3.081-6.99h1.259l3.08,6.99H-706.3l-.7-1.59Zm3.021-1.09-1.271-2.88-1.269,2.88Z" fill="#333"/><path d="M-698.877,156.649a2.46,2.46,0,0,0,1.049-.205,3.63,3.63,0,0,0,.92-.655l.76.78a3.5,3.5,0,0,1-2.694,1.23,3.611,3.611,0,0,1-2.63-1.02,3.452,3.452,0,0,1-1.046-2.58,3.484,3.484,0,0,1,1.065-2.6,3.692,3.692,0,0,1,2.691-1.04,3.518,3.518,0,0,1,2.715,1.2l-.75.82a3.289,3.289,0,0,0-.946-.67,2.639,2.639,0,0,0-1.045-.19,2.483,2.483,0,0,0-1.78.685,2.312,2.312,0,0,0-.72,1.75,2.419,2.419,0,0,0,.715,1.78A2.317,2.317,0,0,0-698.877,156.649Z" fill="#333"/><path d="M-690.067,151.809v5.91h-1.181v-5.91h-2.12v-1.08h5.421v1.08Z" fill="#333"/><path d="M-684.667,150.729h1.18v6.99h-1.18Z" fill="#333"/><path d="M-673.7,156.754a3.6,3.6,0,0,1-2.62,1.035,3.6,3.6,0,0,1-2.62-1.035,3.459,3.459,0,0,1-1.061-2.58,3.459,3.459,0,0,1,1.061-2.58,3.6,3.6,0,0,1,2.62-1.035,3.6,3.6,0,0,1,2.62,1.035,3.461,3.461,0,0,1,1.06,2.58A3.461,3.461,0,0,1-673.7,156.754Zm-.865-4.375a2.344,2.344,0,0,0-1.755-.74,2.344,2.344,0,0,0-1.755.74,2.491,2.491,0,0,0-.715,1.795,2.491,2.491,0,0,0,.715,1.795,2.348,2.348,0,0,0,1.755.74,2.348,2.348,0,0,0,1.755-.74,2.487,2.487,0,0,0,.715-1.795A2.487,2.487,0,0,0-674.562,152.379Z" fill="#333"/><path d="M-663.907,150.729h1.18v6.99h-1.279l-3.96-5.1v5.1h-1.181v-6.99h1.181l4.059,5.22Z" fill="#333"/><path d="M-680.589,116.106H-739.8a7.4,7.4,0,0,1-7.4-7.4h0a7.4,7.4,0,0,1,7.4-7.4h59.209a7.4,7.4,0,0,1,7.4,7.4h0A7.4,7.4,0,0,1-680.589,116.106Z" fill="#ef4130"/><path d="M-734.93,106.855v.275a1.514,1.514,0,0,1-.781,1.552,1.557,1.557,0,0,1,.9,1.65v.627a1.637,1.637,0,0,1-1.837,1.826h-1.9v-7.7h1.826C-735.469,105.084-734.93,105.667-734.93,106.855Zm-2.409-.671v2.036h.472c.451,0,.727-.2.727-.815v-.428c0-.551-.188-.793-.616-.793Zm0,3.136v2.365h.693c.406,0,.627-.187.627-.759v-.671c0-.715-.231-.935-.781-.935Z" fill="#fff"/><path d="M-731.774,108.33h1.661v1.1h-1.661v2.255h2.09v1.1h-3.3v-7.7h3.3v1.1h-2.09Z" fill="#fff"/><path d="M-726.208,105c1.177,0,1.783.7,1.783,1.936v.242h-1.145v-.319c0-.55-.22-.759-.6-.759s-.606.209-.606.759c0,1.584,2.365,1.881,2.365,4.082,0,1.232-.616,1.936-1.8,1.936s-1.8-.7-1.8-1.936v-.473h1.145v.55c0,.55.242.748.627.748s.626-.2.626-.748c0-1.584-2.365-1.881-2.365-4.082C-727.99,105.7-727.384,105-726.208,105Z" fill="#fff"/><path d="M-722.974,105.084h3.74v1.1H-720.5v6.6h-1.209v-6.6h-1.266Z" fill="#fff"/><path d="M-714.9,106.932A1.71,1.71,0,0,1-713.062,105a1.709,1.709,0,0,1,1.837,1.936v4a2.255,2.255,0,0,1-.232,1.078c.056.143.144.165.342.165h.11v1.078h-.165a1.062,1.062,0,0,1-1.045-.528,2.49,2.49,0,0,1-.847.143,1.71,1.71,0,0,1-1.838-1.936Zm1.21,4.082c0,.55.242.759.628.759s.627-.209.627-.759v-4.159c0-.55-.242-.759-.627-.759s-.628.209-.628.759Z" fill="#fff"/><path d="M-708.19,105.084v5.941c0,.55.241.748.627.748s.627-.2.627-.748v-5.941h1.144v5.864c0,1.232-.616,1.936-1.8,1.936s-1.8-.7-1.8-1.936v-5.864Z" fill="#fff"/><path d="M-699.951,112.785h-1.22l-.209-1.4h-1.486l-.209,1.4h-1.111l1.232-7.7h1.771Zm-2.76-2.442h1.166l-.583-3.9Z" fill="#fff"/><path d="M-698.291,105.084h1.21v6.6h1.992v1.1h-3.2Z" fill="#fff"/><path d="M-693.461,105.084h1.21v7.7h-1.21Z" fill="#fff"/><path d="M-690.625,105.084h3.741v1.1h-1.265v6.6h-1.21v-6.6h-1.266Z" fill="#fff"/><path d="M-684.124,110.233l-1.529-5.149h1.266l.924,3.51.923-3.51h1.156l-1.53,5.149v2.552h-1.21Z" fill="#fff"/><path d="M-657.6,74.339a18.537,18.537,0,0,1-2.812-1.648c-7.56-5.5-11.226-19.238-20.309-22.188-8.764-2.845-19.764,6.019-29.477,6.019s-20.712-8.865-29.476-6.019c-9.083,2.949-12.749,16.685-20.309,22.187-7.636,5.558-21.813,4.838-27.371,12.474-5.5,7.56-.474,20.794-3.423,29.877-2.846,8.764-14.787,16.471-14.787,26.184s11.941,17.419,14.787,26.183c2.949,9.083-2.079,22.317,3.423,29.877,4.181,5.745,13.239,6.762,20.722,9.279C-763.732,175.366-747.563,89.263-657.6,74.339Z" fill="#fff" opacity="0.2"/></g></svg>