<svg xmlns="http://www.w3.org/2000/svg" xmlns:xlink="http://www.w3.org/1999/xlink" width="190.732" height="182.57" viewBox="0 0 190.732 182.57"><defs><linearGradient id="a" y1="0.5" x2="1" y2="0.5" gradientUnits="objectBoundingBox"><stop offset="0" stop-color="#c4952f"/><stop offset="0.146" stop-color="#b8871c"/><stop offset="0.28" stop-color="#b17e10"/><stop offset="0.319" stop-color="#b68518"/><stop offset="0.381" stop-color="#c69a31"/><stop offset="0.459" stop-color="#dfbd58"/><stop offset="0.518" stop-color="#f6db7b"/><stop offset="0.84" stop-color="#b17e10"/><stop offset="0.948" stop-color="#e1bf5b"/><stop offset="1" stop-color="#f6db7b"/></linearGradient></defs><g transform="translate(523.065 -49.94)"><path d="M-332.333,141.225c0,9.713-11.941,17.419-14.787,26.183-2.949,9.084,2.079,22.317-3.423,29.878-5.557,7.636-19.734,6.916-27.37,12.473-7.561,5.5-11.227,19.238-20.309,22.187-8.764,2.846-19.764-6.019-29.477-6.019s-20.713,8.865-29.477,6.019c-9.083-2.949-12.749-16.685-20.309-22.187-7.636-5.558-21.813-4.838-27.37-12.474-5.5-7.56-.474-20.794-3.423-29.877-2.846-8.764-14.787-16.471-14.787-26.183s11.941-17.42,14.787-26.184c2.949-9.083-2.079-22.317,3.423-29.877,5.558-7.636,19.735-6.916,27.371-12.474,7.56-5.5,11.226-19.238,20.309-22.187,8.764-2.846,19.764,6.019,29.476,6.019s20.713-8.864,29.477-6.019c9.083,2.95,12.749,16.686,20.309,22.188,7.636,5.557,21.813,4.838,27.37,12.473,5.5,7.561.474,20.795,3.424,29.878C-344.274,123.805-332.333,131.512-332.333,141.225Z" fill="url(#a)"/><path d="M-347.023,141.225c0,8.216-10.1,14.736-12.509,22.15-2.495,7.684,1.759,18.88-2.9,25.275-4.7,6.46-16.694,5.851-23.154,10.552-6.4,4.655-9.5,16.275-17.181,18.77-7.414,2.407-16.719-5.092-24.936-5.092s-17.522,7.5-24.936,5.092c-7.684-2.495-10.785-14.115-17.181-18.77-6.46-4.7-18.453-4.092-23.154-10.552-4.655-6.4-.4-17.591-2.9-25.275-2.407-7.414-12.509-13.934-12.509-22.15s10.1-14.737,12.509-22.151c2.495-7.684-1.759-18.879,2.9-25.275,4.7-6.46,16.7-5.851,23.154-10.552,6.4-4.655,9.5-16.275,17.181-18.77,7.414-2.407,16.72,5.092,24.936,5.092s17.522-7.5,24.937-5.092c7.683,2.5,10.785,14.116,17.181,18.771,6.459,4.7,18.452,4.092,23.154,10.552,4.654,6.4.4,17.591,2.895,25.275C-357.124,126.489-347.023,133.008-347.023,141.225Z" fill="#333"/><circle cx="64.306" cy="64.306" r="64.306" transform="translate(-492.005 76.918)" fill="url(#a)"/><circle cx="58.694" cy="58.694" r="58.694" transform="matrix(0.157, -0.988, 0.988, 0.157, -494.895, 190.102)" fill="none" stroke="#2b2d2c" stroke-miterlimit="10" stroke-width="1"/><path d="M-437.345,98.293v32H-446.4V105.288h-5.944v-7Z" fill="#333"/><path d="M-425.732,128.972a13.224,13.224,0,0,1-5.006-5.739,20.507,20.507,0,0,1-1.806-8.938,20.513,20.513,0,0,1,1.806-8.938,13.221,13.221,0,0,1,5.006-5.738,13.7,13.7,0,0,1,7.315-1.966,13.614,13.614,0,0,1,7.27,1.966,13.228,13.228,0,0,1,5.006,5.738,20.513,20.513,0,0,1,1.807,8.938,20.507,20.507,0,0,1-1.807,8.938,13.23,13.23,0,0,1-5.006,5.739,13.614,13.614,0,0,1-7.27,1.966A13.7,13.7,0,0,1-425.732,128.972Zm10.95-7.659q1.349-2.217,1.349-7.018t-1.349-7.018a4.1,4.1,0,0,0-3.635-2.217,4.132,4.132,0,0,0-3.68,2.217q-1.35,2.218-1.349,7.018t1.349,7.018a4.131,4.131,0,0,0,3.68,2.218A4.1,4.1,0,0,0-414.782,121.313Z" fill="#333"/><path d="M-450.6,170.856l-2.549,7.969h-2.881l-1.286-4.258-1.355,4.258h-2.88l-2.55-7.969h2.766l1.389,4.531,1.469-4.531h2.47l1.389,4.588,1.469-4.588Z" fill="#333"/><path d="M-444.864,177.436h-3.029l-.535,1.389h-2.731l3.483-7.969h2.641l3.483,7.969h-2.777Zm-.74-1.936-.775-2-.773,2Z" fill="#333"/><path d="M-437.7,176.821h-.73v2h-2.686v-7.969h3.837a4.721,4.721,0,0,1,1.924.364,2.84,2.84,0,0,1,1.263,1.048,2.855,2.855,0,0,1,.444,1.593,2.818,2.818,0,0,1-.387,1.492,2.739,2.739,0,0,1-1.115,1.013l1.673,2.459h-2.869Zm1.069-3.648a1.193,1.193,0,0,0-.819-.245h-.98v1.867h.98a1.193,1.193,0,0,0,.819-.245.875.875,0,0,0,.274-.689A.873.873,0,0,0-436.635,173.173Z" fill="#333"/><path d="M-429.224,176.821h-.729v2h-2.687v-7.969h3.837a4.718,4.718,0,0,1,1.924.364,2.843,2.843,0,0,1,1.264,1.048,2.855,2.855,0,0,1,.443,1.593,2.818,2.818,0,0,1-.387,1.492,2.726,2.726,0,0,1-1.115,1.013l1.673,2.459h-2.868Zm1.07-3.648a1.2,1.2,0,0,0-.82-.245h-.979v1.867h.979a1.2,1.2,0,0,0,.82-.245.877.877,0,0,0,.273-.689A.875.875,0,0,0-428.154,173.173Z" fill="#333"/><path d="M-418.729,177.436h-3.028l-.535,1.389h-2.731l3.483-7.969h2.641l3.483,7.969h-2.777Zm-.74-1.936-.774-2-.774,2Z" fill="#333"/><path d="M-407.129,170.856v7.969h-2.209l-3.027-3.62v3.62h-2.619v-7.969h2.209l3.028,3.62v-3.62Z" fill="#333"/><path d="M-404.1,172.939h-2.333v-2.083h7.354v2.083h-2.334v5.886H-404.1Z" fill="#333"/><path d="M-393.878,175.933v2.892h-2.686V175.9l-3.006-5.043h2.835l1.628,2.755,1.638-2.755h2.6Z" fill="#333"/><path d="M-475.128,159.729h1.181v6.99h-1.181Z" fill="#333"/><path d="M-464.768,159.729h1.18v6.99h-1.279l-3.96-5.1v5.1h-1.181v-6.99h1.181l4.059,5.22Z" fill="#333"/><path d="M-457.532,160.649a1.547,1.547,0,0,0-.845.21.7.7,0,0,0-.33.635.737.737,0,0,0,.33.65,4.984,4.984,0,0,0,1.4.485,3.846,3.846,0,0,1,1.62.73,1.726,1.726,0,0,1,.545,1.385,1.834,1.834,0,0,1-.689,1.485,2.752,2.752,0,0,1-1.811.57,4.252,4.252,0,0,1-2.909-1.13l.739-.89a3.336,3.336,0,0,0,2.2.92,1.506,1.506,0,0,0,.9-.245.765.765,0,0,0,.335-.65.731.731,0,0,0-.316-.63,3.3,3.3,0,0,0-1.085-.41,9.768,9.768,0,0,1-1.169-.34,2.651,2.651,0,0,1-.71-.4,1.692,1.692,0,0,1-.621-1.44,1.753,1.753,0,0,1,.706-1.495,2.838,2.838,0,0,1,1.745-.525,4.18,4.18,0,0,1,1.33.22,3.444,3.444,0,0,1,1.139.62l-.629.89a2.383,2.383,0,0,0-.84-.46A3.236,3.236,0,0,0-457.532,160.649Z" fill="#333"/><path d="M-448.707,160.809v5.91h-1.181v-5.91h-2.12v-1.08h5.421v1.08Z" fill="#333"/><path d="M-442.867,165.129l-.7,1.59h-1.26l3.08-6.99h1.26l3.08,6.99h-1.26l-.7-1.59Zm3.02-1.09-1.27-2.88-1.27,2.88Z" fill="#333"/><path d="M-434.438,166.719v-6.99h1.181v5.87h3.19v1.12Z" fill="#333"/><path d="M-426.777,166.719v-6.99h1.18v5.87h3.19v1.12Z" fill="#333"/><path d="M-418.127,165.129l-.7,1.59h-1.26l3.08-6.99h1.26l3.08,6.99h-1.26l-.7-1.59Zm3.021-1.09-1.271-2.88-1.269,2.88Z" fill="#333"/><path d="M-407.606,160.809v5.91h-1.181v-5.91h-2.12v-1.08h5.421v1.08Z" fill="#333"/><path d="M-402.207,159.729h1.181v6.99h-1.181Z" fill="#333"/><path d="M-391.236,165.754a3.6,3.6,0,0,1-2.62,1.035,3.605,3.605,0,0,1-2.621-1.035,3.458,3.458,0,0,1-1.06-2.58,3.458,3.458,0,0,1,1.06-2.58,3.605,3.605,0,0,1,2.621-1.035,3.6,3.6,0,0,1,2.62,1.035,3.461,3.461,0,0,1,1.059,2.58A3.461,3.461,0,0,1-391.236,165.754Zm-.866-4.375a2.34,2.34,0,0,0-1.754-.74,2.341,2.341,0,0,0-1.755.74,2.487,2.487,0,0,0-.715,1.795,2.487,2.487,0,0,0,.715,1.795,2.345,2.345,0,0,0,1.755.74,2.344,2.344,0,0,0,1.754-.74,2.487,2.487,0,0,0,.715-1.795A2.487,2.487,0,0,0-392.1,161.379Z" fill="#333"/><path d="M-381.446,159.729h1.179v6.99h-1.279l-3.96-5.1v5.1h-1.181v-6.99h1.181l4.06,5.22Z" fill="#333"/><path d="M-408.094,151.314H-448.3a7.4,7.4,0,0,1-7.4-7.4h0a7.4,7.4,0,0,1,7.4-7.4h40.209a7.4,7.4,0,0,1,7.4,7.4h0A7.4,7.4,0,0,1-408.094,151.314Z" fill="#ef4130"/><path d="M-442.173,145.44l-1.529-5.148h1.265l.924,3.509.924-3.509h1.155l-1.529,5.148v2.553h-1.21Z" fill="#fff"/><path d="M-432.79,143.537h1.661v1.1h-1.661v2.256h2.09v1.1H-434v-7.7h3.3v1.1h-2.09Z" fill="#fff"/><path d="M-421.086,147.993h-1.221l-.209-1.4H-424l-.209,1.4h-1.111l1.232-7.7h1.771Zm-2.761-2.443h1.166l-.583-3.894Z" fill="#fff"/><path d="M-413.046,147.993a2.374,2.374,0,0,1-.11-.947v-1.21c0-.715-.242-.979-.792-.979h-.418v3.136h-1.21v-7.7h1.826c1.254,0,1.793.583,1.793,1.771v.6a1.535,1.535,0,0,1-.792,1.562c.6.253.8.836.8,1.639v1.189a2.268,2.268,0,0,0,.132.935Zm-1.32-6.6v2.365h.472c.452,0,.727-.2.727-.814v-.759c0-.55-.187-.792-.616-.792Z" fill="#fff"/><path d="M-375.1,74.339a18.538,18.538,0,0,1-2.812-1.648c-7.56-5.5-11.226-19.238-20.309-22.188-8.764-2.845-19.764,6.019-29.477,6.019s-20.712-8.865-29.476-6.019c-9.083,2.949-12.749,16.685-20.309,22.187-7.636,5.558-21.813,4.838-27.371,12.474-5.5,7.56-.474,20.794-3.423,29.877-2.846,8.764-14.787,16.471-14.787,26.184s11.941,17.419,14.787,26.183c2.949,9.083-2.079,22.317,3.423,29.877,4.181,5.745,13.239,6.762,20.722,9.279C-481.237,175.366-465.068,89.263-375.1,74.339Z" fill="#fff" opacity="0.2"/></g></svg>